<svg xmlns="http://www.w3.org/2000/svg" xmlns:xlink="http://www.w3.org/1999/xlink" width="345" height="286" viewBox="4046 3039 345 286"><title></title><style type="text/css">
*[layerid="0"] {stroke:#000000; fill:#000000;}
*[layerid="1"] {stroke:#000000; fill:#000000;}
*[layerid="2"] {stroke:#000000; fill:#000000;}
*[layerid="3"] {stroke:#000000; fill:#000000;}
*[layerid="4"] {stroke:#000000; fill:#000000;}
*[layerid="5"] {stroke:#000000; fill:#000000;}
*[layerid="6"] {stroke:#000000; fill:#000000;}
*[layerid="7"] {stroke:#000000; fill:#000000;}
*[layerid="8"] {stroke:#000000; fill:#000000;}
*[layerid="9"] {stroke:#000000; fill:#000000;}
*[layerid="10"] {stroke:#000000; fill:#000000;}
*[layerid="11"] {stroke:#000000; fill:#000000;}
*[layerid="12"] {stroke:#000000; fill:#000000;}
*[layerid="13"] {stroke:#000000; fill:#000000;}
*[layerid="14"] {stroke:#000000; fill:#000000;}
*[layerid="15"] {stroke:#000000; fill:#000000;}
*[layerid="16"] {stroke:#000000; fill:#000000;}
*[layerid="17"] {stroke:#000000; fill:#000000;}
*[layerid="18"] {stroke:#000000; fill:#000000;}
*[layerid="19"] {stroke:#000000; fill:#000000;}
*[layerid="20"] {stroke:#000000; fill:#000000;}
*[layerid="21"] {stroke:#000000; fill:#000000;}
*[layerid="22"] {stroke:#000000; fill:#000000;}
*[layerid="23"] {stroke:#000000; fill:#000000;}
*[layerid="24"] {stroke:#000000; fill:#000000;}
*[fill="none"] {fill: none;}
*[stroke="none"] {stroke: none;}
g[c_partid="part_pad"] circle {fill:#FFFFFF;}
g[c_partid="part_pad"] > * + polyline {stroke:#FFFFFF;}
path, polyline, polygon, line {stroke-linecap:round;}
g[c_partid="part_pad"] > * + circle {fill: #FFFFFF;}
g[c_partid="part_via"] > * + circle {fill: #FFFFFF;}path, polyline, polygon {stroke-linejoin:round;}
path, polyline, polygon, line {stroke-linecap:round;}
rect, circle, ellipse, polyline, line, polygon, path {shape-rendering:crispEdges;}
</style>
<rect x="4046" y="3039" width="345" height="286" fill="#FFFFFF" stroke="none"/><g id="g1" cpara="" c_transformList="" importFlag="0" xmlns="http://www.w3.org/2000/svg"><polyline points="4172 3072 4172 3079 4179 3086 4186 3093 4289 3093 4300 3104 4300 3112 4301 3113" stroke-width="2" c_shapetype="line" stroke-linecap="round" fill="none" layerid="2" net="SCL" id="gge573" /><polyline points="4182 3072 4182 3079 4189 3086 4295 3086 4311 3102 4311 3113" stroke-width="2" c_shapetype="line" stroke-linecap="round" fill="none" layerid="2" net="SDA" id="gge574" /><polyline points="4142 3209 4141 3200 4151 3190 4158 3190 4171 3177 4171 3168" stroke-width="2" c_shapetype="line" stroke-linecap="round" fill="none" layerid="2" net="5V" id="gge579" /><polyline points="4311 3123 4321 3123" stroke-width="2" c_shapetype="line" stroke-linecap="round" fill="none" layerid="2" net="5V" id="gge581" /><polyline points="4141 3168 4141 3157 4151 3147 4274 3147 4291 3130 4291 3123" stroke-width="2" c_shapetype="line" stroke-linecap="round" fill="none" layerid="2" net="TX" id="gge582" /><polyline points="4151 3168 4151 3175 4144 3182 4135 3182 4129 3176 4129 3156 4147 3138 4273 3138 4281 3130 4281 3123" stroke-width="2" c_shapetype="line" stroke-linecap="round" fill="none" layerid="2" net="RX" id="gge599" /><polyline points="4161 3168 4161 3160 4168 3153 4283 3153 4303 3133 4303 3125 4301 3123" stroke-width="2" c_shapetype="line" stroke-linecap="round" fill="none" layerid="2" net="SCL" id="gge600" /><polyline points="4142 3209 4141 3216 4156 3231 4233 3231 4248 3246" stroke-width="2" c_shapetype="line" stroke-linecap="round" fill="none" layerid="2" net="5V" id="gge615" /><polyline points="4162 3209 4188 3182 4188 3173 4208 3153" stroke-width="2" c_shapetype="line" stroke-linecap="round" fill="none" layerid="2" net="SCL" id="gge616" /><polyline points="4296 3193 4296 3166 4283 3153" stroke-width="2" c_shapetype="line" stroke-linecap="round" fill="none" layerid="2" net="SCL" id="gge678" /><polyline points="4306 3193 4306 3143 4311 3138 4311 3123" stroke-width="2" c_shapetype="line" stroke-linecap="round" fill="none" layerid="2" net="5V" id="gge679" /><polyline points="4316 3193 4316 3144 4327 3133 4327 3108 4325 3106 4315 3106 4309.5 3100.5" stroke-width="2" c_shapetype="line" stroke-linecap="round" fill="none" layerid="2" net="SDA" id="gge680" /><polyline points="4248 3262 4248 3246" stroke-width="2" c_shapetype="line" stroke-linecap="round" fill="none" layerid="2" net="5V" id="gge682" /><polyline points="4248 3246 4269 3246 4306 3209 4306 3193" stroke-width="2" c_shapetype="line" stroke-linecap="round" fill="none" layerid="2" net="5V" id="gge683" /><polyline points="4301 3123 4301 3113" stroke-width="2" c_shapetype="line" stroke-linecap="round" fill="none" layerid="2" net="SCL" id="gge698" /><polyline points="4281 3113 4281 3108 4283 3106 4298 3106 4300 3104" stroke-width="2" c_shapetype="line" stroke-linecap="round" fill="none" layerid="2" net="SCL" id="gge699" /><polyline points="4261 3123 4261 3123" stroke-width="2" c_shapetype="line" stroke-linecap="round" fill="none" layerid="2" net="SCL" id="gge700" /><polyline points="4231 3123 4231 3127 4234 3130 4256 3130 4259 3127 4259 3125 4261 3123" stroke-width="2" c_shapetype="line" stroke-linecap="round" fill="none" layerid="2" net="SCL" id="gge701" /><polyline points="4261 3123 4261 3122 4264 3119 4275 3119 4281 3113" stroke-width="2" c_shapetype="line" stroke-linecap="round" fill="none" layerid="2" net="SCL" id="gge702" /><polyline points="4231 3123 4231 3125 4226 3130 4184 3130 4181 3127 4181 3123" stroke-width="2" c_shapetype="line" stroke-linecap="round" fill="none" layerid="2" net="SCL" id="gge707" /><polyline points="4131 3113 4131 3115 4134 3118 4156 3118 4161 3123" stroke-width="2" c_shapetype="line" stroke-linecap="round" fill="none" layerid="2" net="SCL" id="gge709" /><polyline points="4201 3113 4201 3116 4200 3117 4187 3117 4181 3123" stroke-width="2" c_shapetype="line" stroke-linecap="round" fill="none" layerid="2" net="SCL" id="gge710" /><polyline points="4161 3123 4161 3127 4163 3129 4178 3129 4179 3129 4181 3127" stroke-width="2" c_shapetype="line" stroke-linecap="round" fill="none" layerid="2" net="SCL" id="gge712" /><g xmlns="http://www.w3.org/2000/svg" c_origin="4098,3272" c_para="package`ARDUINOR3_ICSP`value`ARDUINO_R3_ICSP" c_partid="part_import_gge1" id="gge1" c_shapetype="group" c_etype="pinpart" layerid="1" ><g c_partid="part_pcbtext" c_origin="4233,3057" c_rotation="0" c_mirror="" id="gge3" layerid="3" c_shapetype="group" ><path c_fontSize="4.5" c_fontFamily="" c_text="M1" d="M 4233 3054.55 L 4233 3058.84 M 4233 3054.55 L 4234.64 3058.84 M 4236.27 3054.55 L 4234.64 3058.84 M 4236.27 3054.55 L 4236.27 3058.84 M 4237.62 3055.36 L 4238.03 3055.16 L 4238.65 3054.55 L 4238.65 3058.84" fill="none"  stroke-width="0.7" c_note="note_pre" /></g><polyline points="4098 3272 4358 3272" stroke-width="1" c_shapetype="line" stroke-linecap="round" fill="none" layerid="3" net="" id="gge5" /><polyline points="4358 3272 4358 3262" stroke-width="1" c_shapetype="line" stroke-linecap="round" fill="none" layerid="3" net="" id="gge6" /><polyline points="4358 3262 4368 3252" stroke-width="1" c_shapetype="line" stroke-linecap="round" fill="none" layerid="3" net="" id="gge7" /><polyline points="4368 3252 4368 3123" stroke-width="1" c_shapetype="line" stroke-linecap="round" fill="none" layerid="3" net="" id="gge8" /><polyline points="4368 3123 4358 3113" stroke-width="1" c_shapetype="line" stroke-linecap="round" fill="none" layerid="3" net="" id="gge9" /><polyline points="4358 3113 4358 3068" stroke-width="1" c_shapetype="line" stroke-linecap="round" fill="none" layerid="3" net="" id="gge10" /><polyline points="4358 3068 4352 3062" stroke-width="1" c_shapetype="line" stroke-linecap="round" fill="none" layerid="3" net="" id="gge11" /><polyline points="4352 3062 4098 3062" stroke-width="1" c_shapetype="line" stroke-linecap="round" fill="none" layerid="3" net="" id="gge12" /><polyline points="4098 3062 4098 3272" stroke-width="1" c_shapetype="line" stroke-linecap="round" fill="none" layerid="3" net="" id="gge13" /><circle cx="4158" cy="3072" r="7.1" stroke-width="1" fill="none" layerid="12" id="gge14" c_shapetype="line" /><circle cx="4153" cy="3262" r="7.1" stroke-width="1" fill="none" layerid="12" id="gge15" c_shapetype="line" /><circle cx="4358" cy="3132" r="7.1" stroke-width="1" fill="none" layerid="12" id="gge16" c_shapetype="line" /><circle cx="4358" cy="3242" r="7.1" stroke-width="1" fill="none" layerid="12" id="gge17" c_shapetype="line" /><g c_partid="part_pcbtext" c_origin="4225,3257.09" c_rotation="0" c_mirror="0" id="gge132" layerid="3" c_shapetype="group" ><path c_fontSize="2" c_fontFamily="" c_text="RST" d="M 4225 3256.0001 L 4225 3257.9101 M 4225 3256.0001 L 4225.82 3256.0001 L 4226.09 3256.0901 L 4226.18 3256.1801 L 4226.27 3256.3601 L 4226.27 3256.5401 L 4226.18 3256.7301 L 4226.09 3256.8201 L 4225.82 3256.9101 L 4225 3256.9101 M 4225.64 3256.9101 L 4226.27 3257.9101 M 4228.15 3256.2701 L 4227.96 3256.0901 L 4227.69 3256.0001 L 4227.33 3256.0001 L 4227.05 3256.0901 L 4226.87 3256.2701 L 4226.87 3256.4501 L 4226.96 3256.6401 L 4227.05 3256.7301 L 4227.24 3256.8201 L 4227.78 3257.0001 L 4227.96 3257.0901 L 4228.05 3257.1801 L 4228.15 3257.3601 L 4228.15 3257.6401 L 4227.96 3257.8201 L 4227.69 3257.9101 L 4227.33 3257.9101 L 4227.05 3257.8201 L 4226.87 3257.6401 M 4229.38 3256.0001 L 4229.38 3257.9101 M 4228.75 3256.0001 L 4230.02 3256.0001" fill="none"  stroke-width="0.6"  /></g><g c_partid="part_pcbtext" c_origin="4234.8,3257" c_rotation="0" c_mirror="0" id="gge134" layerid="3" c_shapetype="group" ><path c_fontSize="2" c_fontFamily="" c_text="3v" d="M 4234.98 3255.91 L 4235.98 3255.91 L 4235.44 3256.64 L 4235.71 3256.64 L 4235.89 3256.73 L 4235.98 3256.82 L 4236.07 3257.09 L 4236.07 3257.27 L 4235.98 3257.55 L 4235.8 3257.73 L 4235.53 3257.82 L 4235.25 3257.82 L 4234.98 3257.73 L 4234.89 3257.64 L 4234.8 3257.45 M 4236.67 3256.55 L 4237.22 3257.82 M 4237.76 3256.55 L 4237.22 3257.82" fill="none"  stroke-width="0.6"  /></g><g c_partid="part_pcbtext" c_origin="4245.8,3257" c_rotation="0" c_mirror="0" id="gge136" layerid="3" c_shapetype="group" ><path c_fontSize="2" c_fontFamily="" c_text="5v" d="M 4246.89 3255.91 L 4245.98 3255.91 L 4245.89 3256.73 L 4245.98 3256.64 L 4246.25 3256.55 L 4246.53 3256.55 L 4246.8 3256.64 L 4246.98 3256.82 L 4247.07 3257.09 L 4247.07 3257.27 L 4246.98 3257.55 L 4246.8 3257.73 L 4246.53 3257.82 L 4246.25 3257.82 L 4245.98 3257.73 L 4245.89 3257.64 L 4245.8 3257.45 M 4247.67 3256.55 L 4248.22 3257.82 M 4248.76 3256.55 L 4248.22 3257.82" fill="none"  stroke-width="0.6"  /></g><g c_partid="part_pcbtext" c_origin="4258.5,3257" c_rotation="0" c_mirror="0" id="gge138" layerid="3" c_shapetype="group" ><path c_fontSize="2" c_fontFamily="" c_text="Gnd" d="M 4259.86 3256.36 L 4259.77 3256.18 L 4259.59 3256 L 4259.41 3255.91 L 4259.05 3255.91 L 4258.86 3256 L 4258.68 3256.18 L 4258.59 3256.36 L 4258.5 3256.64 L 4258.5 3257.09 L 4258.59 3257.36 L 4258.68 3257.55 L 4258.86 3257.73 L 4259.05 3257.82 L 4259.41 3257.82 L 4259.59 3257.73 L 4259.77 3257.55 L 4259.86 3257.36 L 4259.86 3257.09 M 4259.41 3257.09 L 4259.86 3257.09 M 4260.46 3256.55 L 4260.46 3257.82 M 4260.46 3256.91 L 4260.74 3256.64 L 4260.92 3256.55 L 4261.19 3256.55 L 4261.37 3256.64 L 4261.46 3256.91 L 4261.46 3257.82 M 4263.15 3255.91 L 4263.15 3257.82 M 4263.15 3256.82 L 4262.97 3256.64 L 4262.79 3256.55 L 4262.52 3256.55 L 4262.34 3256.64 L 4262.15 3256.82 L 4262.06 3257.09 L 4262.06 3257.27 L 4262.15 3257.55 L 4262.34 3257.73 L 4262.52 3257.82 L 4262.79 3257.82 L 4262.97 3257.73 L 4263.15 3257.55" fill="none"  stroke-width="0.6"  /></g><g c_partid="part_pcbtext" c_origin="4274.3,3257" c_rotation="0" c_mirror="0" id="gge140" layerid="3" c_shapetype="group" ><path c_fontSize="2" c_fontFamily="" c_text="Vin" d="M 4274.3 3255.91 L 4275.03 3257.82 M 4275.75 3255.91 L 4275.03 3257.82 M 4276.35 3255.91 L 4276.45 3256 L 4276.54 3255.91 L 4276.45 3255.82 L 4276.35 3255.91 M 4276.45 3256.55 L 4276.45 3257.82 M 4277.14 3256.55 L 4277.14 3257.82 M 4277.14 3256.91 L 4277.41 3256.64 L 4277.59 3256.55 L 4277.86 3256.55 L 4278.05 3256.64 L 4278.14 3256.91 L 4278.14 3257.82" fill="none"  stroke-width="0.6"  /></g><g c_partid="part_pcbtext" c_origin="4311,3270.2" c_rotation="0" c_mirror="0" id="gge142" layerid="3" c_shapetype="group" ><path c_fontSize="2" c_fontFamily="" c_text="Analog In" d="M 4311.73 3269.11 L 4311 3271.02 M 4311.73 3269.11 L 4312.45 3271.02 M 4311.27 3270.38 L 4312.18 3270.38 M 4313.05 3269.75 L 4313.05 3271.02 M 4313.05 3270.11 L 4313.33 3269.84 L 4313.51 3269.75 L 4313.78 3269.75 L 4313.96 3269.84 L 4314.05 3270.11 L 4314.05 3271.02 M 4315.75 3269.75 L 4315.75 3271.02 M 4315.75 3270.02 L 4315.56 3269.84 L 4315.38 3269.75 L 4315.11 3269.75 L 4314.93 3269.84 L 4314.75 3270.02 L 4314.65 3270.29 L 4314.65 3270.47 L 4314.75 3270.75 L 4314.93 3270.93 L 4315.11 3271.02 L 4315.38 3271.02 L 4315.56 3270.93 L 4315.75 3270.75 M 4316.35 3269.11 L 4316.35 3271.02 M 4317.4 3269.75 L 4317.22 3269.84 L 4317.04 3270.02 L 4316.95 3270.29 L 4316.95 3270.47 L 4317.04 3270.75 L 4317.22 3270.93 L 4317.4 3271.02 L 4317.67 3271.02 L 4317.85 3270.93 L 4318.04 3270.75 L 4318.13 3270.47 L 4318.13 3270.29 L 4318.04 3270.02 L 4317.85 3269.84 L 4317.67 3269.75 L 4317.4 3269.75 M 4319.82 3269.75 L 4319.82 3271.2 L 4319.73 3271.47 L 4319.64 3271.56 L 4319.45 3271.65 L 4319.18 3271.65 L 4319 3271.56 M 4319.82 3270.02 L 4319.64 3269.84 L 4319.45 3269.75 L 4319.18 3269.75 L 4319 3269.84 L 4318.82 3270.02 L 4318.73 3270.29 L 4318.73 3270.47 L 4318.82 3270.75 L 4319 3270.93 L 4319.18 3271.02 L 4319.45 3271.02 L 4319.64 3270.93 L 4319.82 3270.75 M 4321.82 3269.11 L 4321.82 3271.02 M 4322.42 3269.75 L 4322.42 3271.02 M 4322.42 3270.11 L 4322.69 3269.84 L 4322.87 3269.75 L 4323.15 3269.75 L 4323.33 3269.84 L 4323.42 3270.11 L 4323.42 3271.02" fill="none"  stroke-width="0.6"  /></g><g c_partid="part_pcbtext" c_origin="4296.5,3257" c_rotation="0" c_mirror="0" id="gge144" layerid="3" c_shapetype="group" ><path c_fontSize="2" c_fontFamily="" c_text="0" d="M 4297.05 3255.91 L 4296.77 3256 L 4296.59 3256.27 L 4296.5 3256.73 L 4296.5 3257 L 4296.59 3257.45 L 4296.77 3257.73 L 4297.05 3257.82 L 4297.23 3257.82 L 4297.5 3257.73 L 4297.68 3257.45 L 4297.77 3257 L 4297.77 3256.73 L 4297.68 3256.27 L 4297.5 3256 L 4297.23 3255.91 L 4297.05 3255.91" fill="none"  stroke-width="0.6"  /></g><g c_partid="part_pcbtext" c_origin="4306.5,3257" c_rotation="0" c_mirror="0" id="gge146" layerid="3" c_shapetype="group" ><path c_fontSize="2" c_fontFamily="" c_text="1" d="M 4306.5 3256.27 L 4306.68 3256.18 L 4306.95 3255.91 L 4306.95 3257.82" fill="none"  stroke-width="0.6"  /></g><g c_partid="part_pcbtext" c_origin="4316.5,3257" c_rotation="0" c_mirror="0" id="gge148" layerid="3" c_shapetype="group" ><path c_fontSize="2" c_fontFamily="" c_text="2" d="M 4316.59 3256.36 L 4316.59 3256.27 L 4316.68 3256.09 L 4316.77 3256 L 4316.95 3255.91 L 4317.32 3255.91 L 4317.5 3256 L 4317.59 3256.09 L 4317.68 3256.27 L 4317.68 3256.45 L 4317.59 3256.64 L 4317.41 3256.91 L 4316.5 3257.82 L 4317.77 3257.82" fill="none"  stroke-width="0.6"  /></g><g c_partid="part_pcbtext" c_origin="4326.5,3257" c_rotation="0" c_mirror="0" id="gge150" layerid="3" c_shapetype="group" ><path c_fontSize="2" c_fontFamily="" c_text="3" d="M 4326.68 3255.91 L 4327.68 3255.91 L 4327.14 3256.64 L 4327.41 3256.64 L 4327.59 3256.73 L 4327.68 3256.82 L 4327.77 3257.09 L 4327.77 3257.27 L 4327.68 3257.55 L 4327.5 3257.73 L 4327.23 3257.82 L 4326.95 3257.82 L 4326.68 3257.73 L 4326.59 3257.64 L 4326.5 3257.45" fill="none"  stroke-width="0.6"  /></g><g c_partid="part_pcbtext" c_origin="4336.5,3257" c_rotation="0" c_mirror="0" id="gge152" layerid="3" c_shapetype="group" ><path c_fontSize="2" c_fontFamily="" c_text="4" d="M 4337.41 3255.91 L 4336.5 3257.18 L 4337.86 3257.18 M 4337.41 3255.91 L 4337.41 3257.82" fill="none"  stroke-width="0.6"  /></g><g c_partid="part_pcbtext" c_origin="4346.5,3257" c_rotation="0" c_mirror="0" id="gge154" layerid="3" c_shapetype="group" ><path c_fontSize="2" c_fontFamily="" c_text="5" d="M 4347.59 3255.91 L 4346.68 3255.91 L 4346.59 3256.73 L 4346.68 3256.64 L 4346.95 3256.55 L 4347.23 3256.55 L 4347.5 3256.64 L 4347.68 3256.82 L 4347.77 3257.09 L 4347.77 3257.27 L 4347.68 3257.55 L 4347.5 3257.73 L 4347.23 3257.82 L 4346.95 3257.82 L 4346.68 3257.73 L 4346.59 3257.64 L 4346.5 3257.45" fill="none"  stroke-width="0.6"  /></g><g c_partid="part_pcbtext" c_origin="4185.5,3081" c_rotation="0" c_mirror="0" id="gge156" layerid="3" c_shapetype="group" ><path c_fontSize="2" c_fontFamily="" c_text="ARef" d="M 4186.23 3079.91 L 4185.5 3081.82 M 4186.23 3079.91 L 4186.95 3081.82 M 4185.77 3081.18 L 4186.68 3081.18 M 4187.55 3079.91 L 4187.55 3081.82 M 4187.55 3079.91 L 4188.37 3079.91 L 4188.65 3080 L 4188.74 3080.09 L 4188.83 3080.27 L 4188.83 3080.45 L 4188.74 3080.64 L 4188.65 3080.73 L 4188.37 3080.82 L 4187.55 3080.82 M 4188.19 3080.82 L 4188.83 3081.82 M 4189.43 3081.09 L 4190.52 3081.09 L 4190.52 3080.91 L 4190.43 3080.73 L 4190.34 3080.64 L 4190.15 3080.55 L 4189.88 3080.55 L 4189.7 3080.64 L 4189.52 3080.82 L 4189.43 3081.09 L 4189.43 3081.27 L 4189.52 3081.55 L 4189.7 3081.73 L 4189.88 3081.82 L 4190.15 3081.82 L 4190.34 3081.73 L 4190.52 3081.55 M 4191.85 3079.91 L 4191.66 3079.91 L 4191.48 3080 L 4191.39 3080.27 L 4191.39 3081.82 M 4191.12 3080.55 L 4191.75 3080.55" fill="none"  stroke-width="0.6"  /></g><g c_partid="part_pcbtext" c_origin="4197,3067" c_rotation="0" c_mirror="0" id="gge158" layerid="3" c_shapetype="group" ><path c_fontSize="2" c_fontFamily="" c_text="Gnd" d="M 4198.36 3066.36 L 4198.27 3066.18 L 4198.09 3066 L 4197.91 3065.91 L 4197.55 3065.91 L 4197.36 3066 L 4197.18 3066.18 L 4197.09 3066.36 L 4197 3066.64 L 4197 3067.09 L 4197.09 3067.36 L 4197.18 3067.55 L 4197.36 3067.73 L 4197.55 3067.82 L 4197.91 3067.82 L 4198.09 3067.73 L 4198.27 3067.55 L 4198.36 3067.36 L 4198.36 3067.09 M 4197.91 3067.09 L 4198.36 3067.09 M 4198.96 3066.55 L 4198.96 3067.82 M 4198.96 3066.91 L 4199.24 3066.64 L 4199.42 3066.55 L 4199.69 3066.55 L 4199.87 3066.64 L 4199.96 3066.91 L 4199.96 3067.82 M 4201.65 3065.91 L 4201.65 3067.82 M 4201.65 3066.82 L 4201.47 3066.64 L 4201.29 3066.55 L 4201.02 3066.55 L 4200.84 3066.64 L 4200.65 3066.82 L 4200.56 3067.09 L 4200.56 3067.27 L 4200.65 3067.55 L 4200.84 3067.73 L 4201.02 3067.82 L 4201.29 3067.82 L 4201.47 3067.73 L 4201.65 3067.55" fill="none"  stroke-width="0.6"  /></g><g c_partid="part_pcbtext" c_origin="4216.5,3077" c_rotation="0" c_mirror="0" id="gge160" layerid="3" c_shapetype="group" ><path c_fontSize="2" c_fontFamily="" c_text="13" d="M 4216.5 3076.27 L 4216.68 3076.18 L 4216.95 3075.91 L 4216.95 3077.82 M 4217.74 3075.91 L 4218.74 3075.91 L 4218.19 3076.64 L 4218.46 3076.64 L 4218.65 3076.73 L 4218.74 3076.82 L 4218.83 3077.09 L 4218.83 3077.27 L 4218.74 3077.55 L 4218.55 3077.73 L 4218.28 3077.82 L 4218.01 3077.82 L 4217.74 3077.73 L 4217.65 3077.64 L 4217.55 3077.45" fill="none"  stroke-width="0.6"  /></g><g c_partid="part_pcbtext" c_origin="4226.5,3077" c_rotation="0" c_mirror="0" id="gge162" layerid="3" c_shapetype="group" ><path c_fontSize="2" c_fontFamily="" c_text="12" d="M 4226.5 3076.27 L 4226.68 3076.18 L 4226.95 3075.91 L 4226.95 3077.82 M 4227.65 3076.36 L 4227.65 3076.27 L 4227.74 3076.09 L 4227.83 3076 L 4228.01 3075.91 L 4228.37 3075.91 L 4228.55 3076 L 4228.65 3076.09 L 4228.74 3076.27 L 4228.74 3076.45 L 4228.65 3076.64 L 4228.46 3076.91 L 4227.55 3077.82 L 4228.83 3077.82" fill="none"  stroke-width="0.6"  /></g><g c_partid="part_pcbtext" c_origin="4236.5,3077" c_rotation="0" c_mirror="0" id="gge164" layerid="3" c_shapetype="group" ><path c_fontSize="2" c_fontFamily="" c_text="11" d="M 4236.5 3076.27 L 4236.68 3076.18 L 4236.95 3075.91 L 4236.95 3077.82 M 4237.55 3076.27 L 4237.74 3076.18 L 4238.01 3075.91 L 4238.01 3077.82" fill="none"  stroke-width="0.6"  /></g><g c_partid="part_pcbtext" c_origin="4246.5,3077" c_rotation="0" c_mirror="0" id="gge166" layerid="3" c_shapetype="group" ><path c_fontSize="2" c_fontFamily="" c_text="10" d="M 4246.5 3076.27 L 4246.68 3076.18 L 4246.95 3075.91 L 4246.95 3077.82 M 4248.1 3075.91 L 4247.83 3076 L 4247.65 3076.27 L 4247.55 3076.73 L 4247.55 3077 L 4247.65 3077.45 L 4247.83 3077.73 L 4248.1 3077.82 L 4248.28 3077.82 L 4248.55 3077.73 L 4248.74 3077.45 L 4248.83 3077 L 4248.83 3076.73 L 4248.74 3076.27 L 4248.55 3076 L 4248.28 3075.91 L 4248.1 3075.91" fill="none"  stroke-width="0.6"  /></g><g c_partid="part_pcbtext" c_origin="4254.5,3077" c_rotation="0" c_mirror="0" id="gge168" layerid="3" c_shapetype="group" ><path c_fontSize="2" c_fontFamily="" c_text="9" d="M 4255.68 3076.55 L 4255.59 3076.82 L 4255.41 3077 L 4255.14 3077.09 L 4255.05 3077.09 L 4254.77 3077 L 4254.59 3076.82 L 4254.5 3076.55 L 4254.5 3076.45 L 4254.59 3076.18 L 4254.77 3076 L 4255.05 3075.91 L 4255.14 3075.91 L 4255.41 3076 L 4255.59 3076.18 L 4255.68 3076.55 L 4255.68 3077 L 4255.59 3077.45 L 4255.41 3077.73 L 4255.14 3077.82 L 4254.95 3077.82 L 4254.68 3077.73 L 4254.59 3077.55" fill="none"  stroke-width="0.6"  /></g><g c_partid="part_pcbtext" c_origin="4264.5,3077" c_rotation="0" c_mirror="0" id="gge170" layerid="3" c_shapetype="group" ><path c_fontSize="2" c_fontFamily="" c_text="8" d="M 4264.95 3075.91 L 4264.68 3076 L 4264.59 3076.18 L 4264.59 3076.36 L 4264.68 3076.55 L 4264.86 3076.64 L 4265.23 3076.73 L 4265.5 3076.82 L 4265.68 3077 L 4265.77 3077.18 L 4265.77 3077.45 L 4265.68 3077.64 L 4265.59 3077.73 L 4265.32 3077.82 L 4264.95 3077.82 L 4264.68 3077.73 L 4264.59 3077.64 L 4264.5 3077.45 L 4264.5 3077.18 L 4264.59 3077 L 4264.77 3076.82 L 4265.05 3076.73 L 4265.41 3076.64 L 4265.59 3076.55 L 4265.68 3076.36 L 4265.68 3076.18 L 4265.59 3076 L 4265.32 3075.91 L 4264.95 3075.91" fill="none"  stroke-width="0.6"  /></g><g c_partid="part_pcbtext" c_origin="4280.5,3077" c_rotation="0" c_mirror="0" id="gge172" layerid="3" c_shapetype="group" ><path c_fontSize="2" c_fontFamily="" c_text="7" d="M 4281.77 3075.91 L 4280.86 3077.82 M 4280.5 3075.91 L 4281.77 3075.91" fill="none"  stroke-width="0.6"  /></g><g c_partid="part_pcbtext" c_origin="4290.5,3077" c_rotation="0" c_mirror="0" id="gge174" layerid="3" c_shapetype="group" ><path c_fontSize="2" c_fontFamily="" c_text="6" d="M 4291.59 3076.18 L 4291.5 3076 L 4291.23 3075.91 L 4291.05 3075.91 L 4290.77 3076 L 4290.59 3076.27 L 4290.5 3076.73 L 4290.5 3077.18 L 4290.59 3077.55 L 4290.77 3077.73 L 4291.05 3077.82 L 4291.14 3077.82 L 4291.41 3077.73 L 4291.59 3077.55 L 4291.68 3077.27 L 4291.68 3077.18 L 4291.59 3076.91 L 4291.41 3076.73 L 4291.14 3076.64 L 4291.05 3076.64 L 4290.77 3076.73 L 4290.59 3076.91 L 4290.5 3077.18" fill="none"  stroke-width="0.6"  /></g><g c_partid="part_pcbtext" c_origin="4300.5,3077" c_rotation="0" c_mirror="0" id="gge176" layerid="3" c_shapetype="group" ><path c_fontSize="2" c_fontFamily="" c_text="5" d="M 4301.59 3075.91 L 4300.68 3075.91 L 4300.59 3076.73 L 4300.68 3076.64 L 4300.95 3076.55 L 4301.23 3076.55 L 4301.5 3076.64 L 4301.68 3076.82 L 4301.77 3077.09 L 4301.77 3077.27 L 4301.68 3077.55 L 4301.5 3077.73 L 4301.23 3077.82 L 4300.95 3077.82 L 4300.68 3077.73 L 4300.59 3077.64 L 4300.5 3077.45" fill="none"  stroke-width="0.6"  /></g><g c_partid="part_pcbtext" c_origin="4310.5,3077" c_rotation="0" c_mirror="0" id="gge178" layerid="3" c_shapetype="group" ><path c_fontSize="2" c_fontFamily="" c_text="4" d="M 4311.41 3075.91 L 4310.5 3077.18 L 4311.86 3077.18 M 4311.41 3075.91 L 4311.41 3077.82" fill="none"  stroke-width="0.6"  /></g><g c_partid="part_pcbtext" c_origin="4320.5,3077" c_rotation="0" c_mirror="0" id="gge180" layerid="3" c_shapetype="group" ><path c_fontSize="2" c_fontFamily="" c_text="3" d="M 4320.68 3075.91 L 4321.68 3075.91 L 4321.14 3076.64 L 4321.41 3076.64 L 4321.59 3076.73 L 4321.68 3076.82 L 4321.77 3077.09 L 4321.77 3077.27 L 4321.68 3077.55 L 4321.5 3077.73 L 4321.23 3077.82 L 4320.95 3077.82 L 4320.68 3077.73 L 4320.59 3077.64 L 4320.5 3077.45" fill="none"  stroke-width="0.6"  /></g><g c_partid="part_pcbtext" c_origin="4330.5,3077" c_rotation="0" c_mirror="0" id="gge182" layerid="3" c_shapetype="group" ><path c_fontSize="2" c_fontFamily="" c_text="2" d="M 4330.59 3076.36 L 4330.59 3076.27 L 4330.68 3076.09 L 4330.77 3076 L 4330.95 3075.91 L 4331.32 3075.91 L 4331.5 3076 L 4331.59 3076.09 L 4331.68 3076.27 L 4331.68 3076.45 L 4331.59 3076.64 L 4331.41 3076.91 L 4330.5 3077.82 L 4331.77 3077.82" fill="none"  stroke-width="0.6"  /></g><g c_partid="part_pcbtext" c_origin="4340.5,3077" c_rotation="0" c_mirror="0" id="gge184" layerid="3" c_shapetype="group" ><path c_fontSize="2" c_fontFamily="" c_text="1" d="M 4340.5 3076.27 L 4340.68 3076.18 L 4340.95 3075.91 L 4340.95 3077.82" fill="none"  stroke-width="0.6"  /></g><g c_partid="part_pcbtext" c_origin="4350.5,3077" c_rotation="0" c_mirror="0" id="gge186" layerid="3" c_shapetype="group" ><path c_fontSize="2" c_fontFamily="" c_text="0" d="M 4351.05 3075.91 L 4350.77 3076 L 4350.59 3076.27 L 4350.5 3076.73 L 4350.5 3077 L 4350.59 3077.45 L 4350.77 3077.73 L 4351.05 3077.82 L 4351.23 3077.82 L 4351.5 3077.73 L 4351.68 3077.45 L 4351.77 3077 L 4351.77 3076.73 L 4351.68 3076.27 L 4351.5 3076 L 4351.23 3075.91 L 4351.05 3075.91" fill="none"  stroke-width="0.6"  /></g><g c_partid="part_pcbtext" c_origin="4222.5,3067" c_rotation="0" c_mirror="0" id="gge188" layerid="3" c_shapetype="group" ><path c_fontSize="2" c_fontFamily="" c_text="Digital I/O" d="M 4222.5 3065.91 L 4222.5 3067.82 M 4222.5 3065.91 L 4223.14 3065.91 L 4223.41 3066 L 4223.59 3066.18 L 4223.68 3066.36 L 4223.77 3066.64 L 4223.77 3067.09 L 4223.68 3067.36 L 4223.59 3067.55 L 4223.41 3067.73 L 4223.14 3067.82 L 4222.5 3067.82 M 4224.37 3065.91 L 4224.46 3066 L 4224.55 3065.91 L 4224.46 3065.82 L 4224.37 3065.91 M 4224.46 3066.55 L 4224.46 3067.82 M 4226.25 3066.55 L 4226.25 3068 L 4226.15 3068.27 L 4226.06 3068.36 L 4225.88 3068.45 L 4225.61 3068.45 L 4225.43 3068.36 M 4226.25 3066.82 L 4226.06 3066.64 L 4225.88 3066.55 L 4225.61 3066.55 L 4225.43 3066.64 L 4225.25 3066.82 L 4225.15 3067.09 L 4225.15 3067.27 L 4225.25 3067.55 L 4225.43 3067.73 L 4225.61 3067.82 L 4225.88 3067.82 L 4226.06 3067.73 L 4226.25 3067.55 M 4226.85 3065.91 L 4226.94 3066 L 4227.03 3065.91 L 4226.94 3065.82 L 4226.85 3065.91 M 4226.94 3066.55 L 4226.94 3067.82 M 4227.9 3065.91 L 4227.9 3067.45 L 4227.99 3067.73 L 4228.17 3067.82 L 4228.35 3067.82 M 4227.63 3066.55 L 4228.26 3066.55 M 4230.05 3066.55 L 4230.05 3067.82 M 4230.05 3066.82 L 4229.86 3066.64 L 4229.68 3066.55 L 4229.41 3066.55 L 4229.23 3066.64 L 4229.05 3066.82 L 4228.95 3067.09 L 4228.95 3067.27 L 4229.05 3067.55 L 4229.23 3067.73 L 4229.41 3067.82 L 4229.68 3067.82 L 4229.86 3067.73 L 4230.05 3067.55 M 4230.65 3065.91 L 4230.65 3067.82 M 4232.65 3065.91 L 4232.65 3067.82 M 4234.88 3065.55 L 4233.25 3068.45 M 4236.03 3065.91 L 4235.85 3066 L 4235.66 3066.18 L 4235.57 3066.36 L 4235.48 3066.64 L 4235.48 3067.09 L 4235.57 3067.36 L 4235.66 3067.55 L 4235.85 3067.73 L 4236.03 3067.82 L 4236.39 3067.82 L 4236.57 3067.73 L 4236.75 3067.55 L 4236.85 3067.36 L 4236.94 3067.09 L 4236.94 3066.64 L 4236.85 3066.36 L 4236.75 3066.18 L 4236.57 3066 L 4236.39 3065.91 L 4236.03 3065.91" fill="none"  stroke-width="0.6"  /></g><g c_partid="part_pcbtext" c_origin="4298.5,3067" c_rotation="0" c_mirror="0" id="gge190" layerid="3" c_shapetype="group" ><path c_fontSize="2" c_fontFamily="" c_text="Digital I/O" d="M 4298.5 3065.91 L 4298.5 3067.82 M 4298.5 3065.91 L 4299.14 3065.91 L 4299.41 3066 L 4299.59 3066.18 L 4299.68 3066.36 L 4299.77 3066.64 L 4299.77 3067.09 L 4299.68 3067.36 L 4299.59 3067.55 L 4299.41 3067.73 L 4299.14 3067.82 L 4298.5 3067.82 M 4300.37 3065.91 L 4300.46 3066 L 4300.55 3065.91 L 4300.46 3065.82 L 4300.37 3065.91 M 4300.46 3066.55 L 4300.46 3067.82 M 4302.25 3066.55 L 4302.25 3068 L 4302.15 3068.27 L 4302.06 3068.36 L 4301.88 3068.45 L 4301.61 3068.45 L 4301.43 3068.36 M 4302.25 3066.82 L 4302.06 3066.64 L 4301.88 3066.55 L 4301.61 3066.55 L 4301.43 3066.64 L 4301.25 3066.82 L 4301.15 3067.09 L 4301.15 3067.27 L 4301.25 3067.55 L 4301.43 3067.73 L 4301.61 3067.82 L 4301.88 3067.82 L 4302.06 3067.73 L 4302.25 3067.55 M 4302.85 3065.91 L 4302.94 3066 L 4303.03 3065.91 L 4302.94 3065.82 L 4302.85 3065.91 M 4302.94 3066.55 L 4302.94 3067.82 M 4303.9 3065.91 L 4303.9 3067.45 L 4303.99 3067.73 L 4304.17 3067.82 L 4304.35 3067.82 M 4303.63 3066.55 L 4304.26 3066.55 M 4306.05 3066.55 L 4306.05 3067.82 M 4306.05 3066.82 L 4305.86 3066.64 L 4305.68 3066.55 L 4305.41 3066.55 L 4305.23 3066.64 L 4305.05 3066.82 L 4304.95 3067.09 L 4304.95 3067.27 L 4305.05 3067.55 L 4305.23 3067.73 L 4305.41 3067.82 L 4305.68 3067.82 L 4305.86 3067.73 L 4306.05 3067.55 M 4306.65 3065.91 L 4306.65 3067.82 M 4308.65 3065.91 L 4308.65 3067.82 M 4310.88 3065.55 L 4309.25 3068.45 M 4312.03 3065.91 L 4311.85 3066 L 4311.66 3066.18 L 4311.57 3066.36 L 4311.48 3066.64 L 4311.48 3067.09 L 4311.57 3067.36 L 4311.66 3067.55 L 4311.85 3067.73 L 4312.03 3067.82 L 4312.39 3067.82 L 4312.57 3067.73 L 4312.75 3067.55 L 4312.85 3067.36 L 4312.94 3067.09 L 4312.94 3066.64 L 4312.85 3066.36 L 4312.75 3066.18 L 4312.57 3066 L 4312.39 3065.91 L 4312.03 3065.91" fill="none"  stroke-width="0.6"  /></g><g c_partid="part_pcbtext" c_origin="4167.5,3081" c_rotation="0" c_mirror="0" id="gge192" layerid="3" c_shapetype="group" ><path c_fontSize="2" c_fontFamily="" c_text="SCL" d="M 4168.77 3080.18 L 4168.59 3080 L 4168.32 3079.91 L 4167.95 3079.91 L 4167.68 3080 L 4167.5 3080.18 L 4167.5 3080.36 L 4167.59 3080.55 L 4167.68 3080.64 L 4167.86 3080.73 L 4168.41 3080.91 L 4168.59 3081 L 4168.68 3081.09 L 4168.77 3081.27 L 4168.77 3081.55 L 4168.59 3081.73 L 4168.32 3081.82 L 4167.95 3081.82 L 4167.68 3081.73 L 4167.5 3081.55 M 4170.74 3080.36 L 4170.65 3080.18 L 4170.46 3080 L 4170.28 3079.91 L 4169.92 3079.91 L 4169.74 3080 L 4169.55 3080.18 L 4169.46 3080.36 L 4169.37 3080.64 L 4169.37 3081.09 L 4169.46 3081.36 L 4169.55 3081.55 L 4169.74 3081.73 L 4169.92 3081.82 L 4170.28 3081.82 L 4170.46 3081.73 L 4170.65 3081.55 L 4170.74 3081.36 M 4171.34 3079.91 L 4171.34 3081.82 M 4171.34 3081.82 L 4172.43 3081.82" fill="none"  stroke-width="0.6"  /></g><g c_partid="part_pcbtext" c_origin="4176.5,3067" c_rotation="0" c_mirror="0" id="gge194" layerid="3" c_shapetype="group" ><path c_fontSize="2" c_fontFamily="" c_text="SDA" d="M 4177.77 3066.18 L 4177.59 3066 L 4177.32 3065.91 L 4176.95 3065.91 L 4176.68 3066 L 4176.5 3066.18 L 4176.5 3066.36 L 4176.59 3066.55 L 4176.68 3066.64 L 4176.86 3066.73 L 4177.41 3066.91 L 4177.59 3067 L 4177.68 3067.09 L 4177.77 3067.27 L 4177.77 3067.55 L 4177.59 3067.73 L 4177.32 3067.82 L 4176.95 3067.82 L 4176.68 3067.73 L 4176.5 3067.55 M 4178.37 3065.91 L 4178.37 3067.82 M 4178.37 3065.91 L 4179.01 3065.91 L 4179.28 3066 L 4179.46 3066.18 L 4179.55 3066.36 L 4179.65 3066.64 L 4179.65 3067.09 L 4179.55 3067.36 L 4179.46 3067.55 L 4179.28 3067.73 L 4179.01 3067.82 L 4178.37 3067.82 M 4180.97 3065.91 L 4180.25 3067.82 M 4180.97 3065.91 L 4181.7 3067.82 M 4180.52 3067.18 L 4181.43 3067.18" fill="none"  stroke-width="0.6"  /></g><g c_partid="part_pcbtext" c_origin="4214,3257" c_rotation="0" c_mirror="0" id="gge196" layerid="3" c_shapetype="group" ><path c_fontSize="2" c_fontFamily="" c_text="IOr" d="M 4214 3255.91 L 4214 3257.82 M 4215.15 3255.91 L 4214.96 3256 L 4214.78 3256.18 L 4214.69 3256.36 L 4214.6 3256.64 L 4214.6 3257.09 L 4214.69 3257.36 L 4214.78 3257.55 L 4214.96 3257.73 L 4215.15 3257.82 L 4215.51 3257.82 L 4215.69 3257.73 L 4215.87 3257.55 L 4215.96 3257.36 L 4216.05 3257.09 L 4216.05 3256.64 L 4215.96 3256.36 L 4215.87 3256.18 L 4215.69 3256 L 4215.51 3255.91 L 4215.15 3255.91 M 4216.65 3256.55 L 4216.65 3257.82 M 4216.65 3257.09 L 4216.75 3256.82 L 4216.93 3256.64 L 4217.11 3256.55 L 4217.38 3256.55" fill="none"  stroke-width="0.6"  /></g><g c_partid="part_pad" c_etype="pinpart" c_origin="4308,3072" layerid="11" number="D4" net="M1_D4" plated ="Y" c_shapetype="group" id="gge18" c_rotation="0" c_width="6.6" c_height="6.6" title="M1_D4" c_shape="RECT"><polygon points="4304.7 3068.7 4311.3 3068.7 4311.3 3075.3 4304.7 3075.3" stroke-width="0" /><circle cx="4308" cy="3072" r="1.97" stroke-width="0" /></g><g c_partid="part_pad" c_etype="pinpart" c_origin="4298,3262" layerid="11" number="A0" net="A0" plated ="Y" c_shapetype="group" id="gge21" c_rotation="0" c_width="6.6" c_height="6.6" title="A0" c_shape="RECT"><polygon points="4294.7 3258.7 4301.3 3258.7 4301.3 3265.3 4294.7 3265.3" stroke-width="0" /><circle cx="4298" cy="3262" r="1.97" stroke-width="0" /></g><g c_partid="part_pad" c_etype="pinpart" c_origin="4318,3072" layerid="11" number="D3" net="M1_D3" plated ="Y" c_shapetype="group" id="gge24" c_rotation="0" c_width="6.6" c_height="6.6" title="M1_D3" c_shape="RECT"><polygon points="4314.7 3068.7 4321.3 3068.7 4321.3 3075.3 4314.7 3075.3" stroke-width="0" /><circle cx="4318" cy="3072" r="1.97" stroke-width="0" /></g><g c_partid="part_pad" c_etype="pinpart" c_origin="4328,3072" layerid="11" number="D2" net="M1_D2" plated ="Y" c_shapetype="group" id="gge27" c_rotation="0" c_width="6.6" c_height="6.6" title="M1_D2" c_shape="RECT"><polygon points="4324.7 3068.7 4331.3 3068.7 4331.3 3075.3 4324.7 3075.3" stroke-width="0" /><circle cx="4328" cy="3072" r="1.97" stroke-width="0" /></g><g c_partid="part_pad" c_etype="pinpart" c_origin="4338,3072" layerid="11" number="D1" net="M1_D1" plated ="Y" c_shapetype="group" id="gge30" c_rotation="0" c_width="6.6" c_height="6.6" title="M1_D1" c_shape="RECT"><polygon points="4334.7 3068.7 4341.3 3068.7 4341.3 3075.3 4334.7 3075.3" stroke-width="0" /><circle cx="4338" cy="3072" r="1.97" stroke-width="0" /></g><g c_partid="part_pad" c_etype="pinpart" c_origin="4348,3072" layerid="11" number="D0" net="M1_D0" plated ="Y" c_shapetype="group" id="gge33" c_rotation="0" c_width="6.6" c_height="6.6" title="M1_D0" c_shape="RECT"><polygon points="4344.7 3068.7 4351.3 3068.7 4351.3 3075.3 4344.7 3075.3" stroke-width="0" /><circle cx="4348" cy="3072" r="1.97" stroke-width="0" /></g><g c_partid="part_pad" c_etype="pinpart" c_origin="4298,3072" layerid="11" number="D5" net="M1_D5" plated ="Y" c_shapetype="group" id="gge36" c_rotation="0" c_width="6.6" c_height="6.6" title="M1_D5" c_shape="RECT"><polygon points="4294.7 3068.7 4301.3 3068.7 4301.3 3075.3 4294.7 3075.3" stroke-width="0" /><circle cx="4298" cy="3072" r="1.97" stroke-width="0" /></g><g c_partid="part_pad" c_etype="pinpart" c_origin="4288,3072" layerid="11" number="D6" net="M1_D6" plated ="Y" c_shapetype="group" id="gge39" c_rotation="0" c_width="6.6" c_height="6.6" title="M1_D6" c_shape="RECT"><polygon points="4284.7 3068.7 4291.3 3068.7 4291.3 3075.3 4284.7 3075.3" stroke-width="0" /><circle cx="4288" cy="3072" r="1.97" stroke-width="0" /></g><g c_partid="part_pad" c_etype="pinpart" c_origin="4278,3072" layerid="11" number="D7" net="M1_D7" plated ="Y" c_shapetype="group" id="gge42" c_rotation="0" c_width="6.6" c_height="6.6" title="M1_D7" c_shape="RECT"><polygon points="4274.7 3068.7 4281.3 3068.7 4281.3 3075.3 4274.7 3075.3" stroke-width="0" /><circle cx="4278" cy="3072" r="1.97" stroke-width="0" /></g><g c_partid="part_pad" c_etype="pinpart" c_origin="4262,3072" layerid="11" number="D8" net="M1_D8" plated ="Y" c_shapetype="group" id="gge45" c_rotation="0" c_width="6.6" c_height="6.6" title="M1_D8" c_shape="RECT"><polygon points="4258.7 3068.7 4265.3 3068.7 4265.3 3075.3 4258.7 3075.3" stroke-width="0" /><circle cx="4262" cy="3072" r="1.97" stroke-width="0" /></g><g c_partid="part_pad" c_etype="pinpart" c_origin="4252,3072" layerid="11" number="D9" net="M1_D9" plated ="Y" c_shapetype="group" id="gge48" c_rotation="0" c_width="6.6" c_height="6.6" title="M1_D9" c_shape="RECT"><polygon points="4248.7 3068.7 4255.3 3068.7 4255.3 3075.3 4248.7 3075.3" stroke-width="0" /><circle cx="4252" cy="3072" r="1.97" stroke-width="0" /></g><g c_partid="part_pad" c_etype="pinpart" c_origin="4242,3072" layerid="11" number="D10" net="M1_D10" plated ="Y" c_shapetype="group" id="gge51" c_rotation="0" c_width="6.6" c_height="6.6" title="M1_D10" c_shape="RECT"><polygon points="4238.7 3068.7 4245.3 3068.7 4245.3 3075.3 4238.7 3075.3" stroke-width="0" /><circle cx="4242" cy="3072" r="1.97" stroke-width="0" /></g><g c_partid="part_pad" c_etype="pinpart" c_origin="4232,3072" layerid="11" number="D11" net="M1_D11" plated ="Y" c_shapetype="group" id="gge54" c_rotation="0" c_width="6.6" c_height="6.6" title="M1_D11" c_shape="RECT"><polygon points="4228.7 3068.7 4235.3 3068.7 4235.3 3075.3 4228.7 3075.3" stroke-width="0" /><circle cx="4232" cy="3072" r="1.97" stroke-width="0" /></g><g c_partid="part_pad" c_etype="pinpart" c_origin="4222,3072" layerid="11" number="D12" net="M1_D12" plated ="Y" c_shapetype="group" id="gge57" c_rotation="0" c_width="6.6" c_height="6.6" title="M1_D12" c_shape="RECT"><polygon points="4218.7 3068.7 4225.3 3068.7 4225.3 3075.3 4218.7 3075.3" stroke-width="0" /><circle cx="4222" cy="3072" r="1.97" stroke-width="0" /></g><g c_partid="part_pad" c_etype="pinpart" c_origin="4212,3072" layerid="11" number="D13" net="M1_D13" plated ="Y" c_shapetype="group" id="gge60" c_rotation="0" c_width="6.6" c_height="6.6" title="M1_D13" c_shape="RECT"><polygon points="4208.7 3068.7 4215.3 3068.7 4215.3 3075.3 4208.7 3075.3" stroke-width="0" /><circle cx="4212" cy="3072" r="1.97" stroke-width="0" /></g><g c_partid="part_pad" c_etype="pinpart" c_origin="4202,3072" layerid="11" number="GND" net="SCL" plated ="Y" c_shapetype="group" id="gge63" c_rotation="0" c_width="6.6" c_height="6.6" title="SCL" c_shape="RECT"><polygon points="4198.7 3068.7 4205.3 3068.7 4205.3 3075.3 4198.7 3075.3" stroke-width="0" /><circle cx="4202" cy="3072" r="1.97" stroke-width="0" /></g><g c_partid="part_pad" c_etype="pinpart" c_origin="4192,3072" layerid="11" number="AREF" net="M1_AREF" plated ="Y" c_shapetype="group" id="gge66" c_rotation="0" c_width="6.6" c_height="6.6" title="M1_AREF" c_shape="RECT"><polygon points="4188.7 3068.7 4195.3 3068.7 4195.3 3075.3 4188.7 3075.3" stroke-width="0" /><circle cx="4192" cy="3072" r="1.97" stroke-width="0" /></g><g c_partid="part_pad" c_etype="pinpart" c_origin="4308,3262" layerid="11" number="A1" net="A1" plated ="Y" c_shapetype="group" id="gge69" c_rotation="0" c_width="6.6" c_height="6.6" title="A1" c_shape="RECT"><polygon points="4304.7 3258.7 4311.3 3258.7 4311.3 3265.3 4304.7 3265.3" stroke-width="0" /><circle cx="4308" cy="3262" r="1.97" stroke-width="0" /></g><g c_partid="part_pad" c_etype="pinpart" c_origin="4318,3262" layerid="11" number="A2" net="A2" plated ="Y" c_shapetype="group" id="gge72" c_rotation="0" c_width="6.6" c_height="6.6" title="A2" c_shape="RECT"><polygon points="4314.7 3258.7 4321.3 3258.7 4321.3 3265.3 4314.7 3265.3" stroke-width="0" /><circle cx="4318" cy="3262" r="1.97" stroke-width="0" /></g><g c_partid="part_pad" c_etype="pinpart" c_origin="4328,3262" layerid="11" number="A3" net="A3" plated ="Y" c_shapetype="group" id="gge75" c_rotation="0" c_width="6.6" c_height="6.6" title="A3" c_shape="RECT"><polygon points="4324.7 3258.7 4331.3 3258.7 4331.3 3265.3 4324.7 3265.3" stroke-width="0" /><circle cx="4328" cy="3262" r="1.97" stroke-width="0" /></g><g c_partid="part_pad" c_etype="pinpart" c_origin="4338,3262" layerid="11" number="A4" net="A4" plated ="Y" c_shapetype="group" id="gge78" c_rotation="0" c_width="6.6" c_height="6.6" title="A4" c_shape="RECT"><polygon points="4334.7 3258.7 4341.3 3258.7 4341.3 3265.3 4334.7 3265.3" stroke-width="0" /><circle cx="4338" cy="3262" r="1.97" stroke-width="0" /></g><g c_partid="part_pad" c_etype="pinpart" c_origin="4348,3262" layerid="11" number="A5" net="A5" plated ="Y" c_shapetype="group" id="gge81" c_rotation="0" c_width="6.6" c_height="6.6" title="A5" c_shape="RECT"><polygon points="4344.7 3258.7 4351.3 3258.7 4351.3 3265.3 4344.7 3265.3" stroke-width="0" /><circle cx="4348" cy="3262" r="1.97" stroke-width="0" /></g><g c_partid="part_pad" c_etype="pinpart" c_origin="4278,3262" layerid="11" number="VIN" net="VIN" plated ="Y" c_shapetype="group" id="gge84" c_rotation="0" c_width="6.6" c_height="6.6" title="VIN" c_shape="RECT"><polygon points="4274.7 3258.7 4281.3 3258.7 4281.3 3265.3 4274.7 3265.3" stroke-width="0" /><circle cx="4278" cy="3262" r="1.97" stroke-width="0" /></g><g c_partid="part_pad" c_etype="pinpart" c_origin="4268,3262" layerid="11" number="GND@1" net="" plated ="Y" c_shapetype="group" id="gge87" c_rotation="0" c_width="6.6" c_height="6.6" title="" c_shape="RECT"><polygon points="4264.7 3258.7 4271.3 3258.7 4271.3 3265.3 4264.7 3265.3" stroke-width="0" /><circle cx="4268" cy="3262" r="1.97" stroke-width="0" /></g><g c_partid="part_pad" c_etype="pinpart" c_origin="4258,3262" layerid="11" number="GND@2" net="" plated ="Y" c_shapetype="group" id="gge90" c_rotation="0" c_width="6.6" c_height="6.6" title="" c_shape="RECT"><polygon points="4254.7 3258.7 4261.3 3258.7 4261.3 3265.3 4254.7 3265.3" stroke-width="0" /><circle cx="4258" cy="3262" r="1.97" stroke-width="0" /></g><g c_partid="part_pad" c_etype="pinpart" c_origin="4248,3262" layerid="11" number="5V" net="5V" plated ="Y" c_shapetype="group" id="gge93" c_rotation="0" c_width="6.6" c_height="6.6" title="5V" c_shape="RECT"><polygon points="4244.7 3258.7 4251.3 3258.7 4251.3 3265.3 4244.7 3265.3" stroke-width="0" /><circle cx="4248" cy="3262" r="1.97" stroke-width="0" /></g><g c_partid="part_pad" c_etype="pinpart" c_origin="4238,3262" layerid="11" number="3V" net="" plated ="Y" c_shapetype="group" id="gge96" c_rotation="0" c_width="6.6" c_height="6.6" title="" c_shape="RECT"><polygon points="4234.7 3258.7 4241.3 3258.7 4241.3 3265.3 4234.7 3265.3" stroke-width="0" /><circle cx="4238" cy="3262" r="1.97" stroke-width="0" /></g><g c_partid="part_pad" c_etype="pinpart" c_origin="4228,3262" layerid="11" number="RESET" net="RESET" plated ="Y" c_shapetype="group" id="gge99" c_rotation="0" c_width="6.6" c_height="6.6" title="RESET" c_shape="RECT"><polygon points="4224.7 3258.7 4231.3 3258.7 4231.3 3265.3 4224.7 3265.3" stroke-width="0" /><circle cx="4228" cy="3262" r="1.97" stroke-width="0" /></g><g c_partid="part_pad" c_etype="pinpart" c_origin="4182,3072" layerid="11" number="SDA" net="SDA" plated ="Y" c_shapetype="group" id="gge102" c_rotation="0" c_width="6.6" c_height="6.6" title="SDA" c_shape="RECT"><polygon points="4178.7 3068.7 4185.3 3068.7 4185.3 3075.3 4178.7 3075.3" stroke-width="0" /><circle cx="4182" cy="3072" r="1.97" stroke-width="0" /></g><g c_partid="part_pad" c_etype="pinpart" c_origin="4172,3072" layerid="11" number="SCL" net="SCL" plated ="Y" c_shapetype="group" id="gge105" c_rotation="0" c_width="6.6" c_height="6.6" title="SCL" c_shape="RECT"><polygon points="4168.7 3068.7 4175.3 3068.7 4175.3 3075.3 4168.7 3075.3" stroke-width="0" /><circle cx="4172" cy="3072" r="1.97" stroke-width="0" /></g><g c_partid="part_pad" c_etype="pinpart" c_origin="4218,3262" layerid="11" number="IOREF" net="IOREF" plated ="Y" c_shapetype="group" id="gge108" c_rotation="0" c_width="6.6" c_height="6.6" title="IOREF" c_shape="RECT"><polygon points="4214.7 3258.7 4221.3 3258.7 4221.3 3265.3 4214.7 3265.3" stroke-width="0" /><circle cx="4218" cy="3262" r="1.97" stroke-width="0" /></g><g c_partid="part_pad" c_etype="pinpart" c_origin="4208,3262" layerid="11" number="RESERVED" net="M1_RESERVED" plated ="Y" c_shapetype="group" id="gge111" c_rotation="0" c_width="6.6" c_height="6.6" title="M1_RESERVED" c_shape="RECT"><polygon points="4204.7 3258.7 4211.3 3258.7 4211.3 3265.3 4204.7 3265.3" stroke-width="0" /><circle cx="4208" cy="3262" r="1.97" stroke-width="0" /></g><g c_partid="part_pad" c_etype="pinpart" c_origin="4358.5,3162" layerid="11" number="MOSI" net="" plated ="Y" c_shapetype="group" id="gge114" c_rotation="0" c_width="7" c_height="7" title="" c_shape="RECT"><polygon points="4355 3158.5 4362 3158.5 4362 3165.5 4355 3165.5" stroke-width="0" /><circle cx="4358.5" cy="3162" r="1.97" stroke-width="0" /></g><g c_partid="part_pad" c_etype="pinpart" c_origin="4348.5,3162" layerid="11" number="SCK" net="" plated ="Y" c_shapetype="group" id="gge117" c_rotation="0" c_width="7" c_height="7" title="" c_shape="RECT"><polygon points="4345 3158.5 4352 3158.5 4352 3165.5 4345 3165.5" stroke-width="0" /><circle cx="4348.5" cy="3162" r="1.97" stroke-width="0" /></g><g c_partid="part_pad" c_etype="pinpart" c_origin="4348.5,3152" layerid="11" number="MISO" net="" plated ="Y" c_shapetype="group" id="gge120" c_rotation="0" c_width="7" c_height="7" title="" c_shape="RECT"><polygon points="4345 3148.5 4352 3148.5 4352 3155.5 4345 3155.5" stroke-width="0" /><circle cx="4348.5" cy="3152" r="1.97" stroke-width="0" /></g><g c_partid="part_pad" c_etype="pinpart" c_origin="4358.5,3152" layerid="11" number="5V_ICSP" net="" plated ="Y" c_shapetype="group" id="gge123" c_rotation="0" c_width="7" c_height="7" title="" c_shape="RECT"><polygon points="4355 3148.5 4362 3148.5 4362 3155.5 4355 3155.5" stroke-width="0" /><circle cx="4358.5" cy="3152" r="1.97" stroke-width="0" /></g><g c_partid="part_pad" c_etype="pinpart" c_origin="4358.5,3172" layerid="11" number="GND@3" net="" plated ="Y" c_shapetype="group" id="gge126" c_rotation="0" c_width="7" c_height="7" title="" c_shape="RECT"><polygon points="4355 3168.5 4362 3168.5 4362 3175.5 4355 3175.5" stroke-width="0" /><circle cx="4358.5" cy="3172" r="1.97" stroke-width="0" /></g><g c_partid="part_pad" c_etype="pinpart" c_origin="4348.5,3172" layerid="11" number="RESET_ICSP" net="" plated ="Y" c_shapetype="group" id="gge129" c_rotation="0" c_width="7" c_height="7" title="" c_shape="RECT"><polygon points="4345 3168.5 4352 3168.5 4352 3175.5 4345 3175.5" stroke-width="0" /><circle cx="4348.5" cy="3172" r="1.97" stroke-width="0" /></g></g><g xmlns="http://www.w3.org/2000/svg" c_origin="4226,3118" c_para="package`2X20-SHROUDED`value`RASPBERRYPI-B+-GPIO" c_partid="part_import_gge198" id="gge198" c_shapetype="group" c_etype="pinpart" layerid="1" c_rotation="270"><g c_partid="part_pcbtext" c_origin="4345.8,3118" c_rotation="90" c_mirror="" id="gge200" layerid="3" c_shapetype="group" ><path c_fontSize="4.5" c_fontFamily="" c_text="JP1" d="M 4343.35 3115.95 L 4346.62 3115.95 L 4347.23 3116.16 L 4347.44 3116.36 L 4347.64 3116.77 L 4347.64 3117.18 L 4347.44 3117.59 L 4347.23 3117.8 L 4346.62 3118 L 4346.21 3118 M 4343.35 3114.6 L 4347.64 3114.6 M 4343.35 3114.6 L 4343.35 3112.76 L 4343.55 3112.15 L 4343.75 3111.95 L 4344.16 3111.74 L 4344.78 3111.74 L 4345.19 3111.95 L 4345.39 3112.15 L 4345.6 3112.76 L 4345.6 3114.6 M 4344.16 3110.39 L 4343.96 3109.98 L 4343.35 3109.37 L 4347.64 3109.37" fill="none"  stroke-width="0.7" c_note="note_pre" /></g><polyline points="4323.5 3107.1 4318.5 3107.1" stroke-width="1" c_shapetype="line" stroke-linecap="round" fill="none" layerid="3" net="" id="gge202" /><polyline points="4340.8 3135.7 4111.2 3135.7 4111.2 3100.3 4340.8 3100.3 4340.8 3135.3" stroke-width="1" c_shapetype="line" stroke-linecap="round" fill="none" layerid="3" net="" id="gge203" /><polyline points="4234.7 3104.6 4336.4 3104.6 4336.4 3131.4 4115.6 3131.4 4115.6 3104.6 4217.3 3104.6" stroke-width="1" c_shapetype="line" stroke-linecap="round" fill="none" layerid="12" net="" id="gge204" /><polyline points="4234.7 3100.3 4234.7 3106.2 4217.3 3106.2 4217.3 3100.3" stroke-width="1" c_shapetype="line" stroke-linecap="round" fill="none" layerid="3" net="" id="gge205" /><g c_partid="part_pad" c_etype="pinpart" c_origin="4321,3113" layerid="11" number="1" net="" plated ="Y" c_shapetype="group" id="gge206" c_rotation="180" c_width="7.4" c_height="7.4" title="" c_shape="RECT"><polygon points="4324.7 3116.7 4317.3 3116.7 4317.3 3109.3 4324.7 3109.3" stroke-width="0" /><circle cx="4321" cy="3113" r="2" stroke-width="0" /></g><g c_partid="part_pad" c_etype="pinpart" c_origin="4321,3123" layerid="11" number="2" net="5V" plated ="Y" c_shapetype="group" id="gge209" c_rotation="180" c_width="7.4" c_height="7.4" title="5V" c_shape="RECT"><polygon points="4324.7 3126.7 4317.3 3126.7 4317.3 3119.3 4324.7 3119.3" stroke-width="0" /><circle cx="4321" cy="3123" r="2" stroke-width="0" /></g><g c_partid="part_pad" c_etype="pinpart" c_origin="4311,3113" layerid="11" number="3" net="SDA" plated ="Y" c_shapetype="group" id="gge212" c_rotation="180" c_width="7.4" c_height="7.4" title="SDA" c_shape="RECT"><polygon points="4314.7 3116.7 4307.3 3116.7 4307.3 3109.3 4314.7 3109.3" stroke-width="0" /><circle cx="4311" cy="3113" r="2" stroke-width="0" /></g><g c_partid="part_pad" c_etype="pinpart" c_origin="4311,3123" layerid="11" number="4" net="5V" plated ="Y" c_shapetype="group" id="gge215" c_rotation="180" c_width="7.4" c_height="7.4" title="5V" c_shape="RECT"><polygon points="4314.7 3126.7 4307.3 3126.7 4307.3 3119.3 4314.7 3119.3" stroke-width="0" /><circle cx="4311" cy="3123" r="2" stroke-width="0" /></g><g c_partid="part_pad" c_etype="pinpart" c_origin="4301,3113" layerid="11" number="5" net="SCL" plated ="Y" c_shapetype="group" id="gge218" c_rotation="180" c_width="7.4" c_height="7.4" title="SCL" c_shape="RECT"><polygon points="4304.7 3116.7 4297.3 3116.7 4297.3 3109.3 4304.7 3109.3" stroke-width="0" /><circle cx="4301" cy="3113" r="2" stroke-width="0" /></g><g c_partid="part_pad" c_etype="pinpart" c_origin="4301,3123" layerid="11" number="6" net="SCL" plated ="Y" c_shapetype="group" id="gge221" c_rotation="180" c_width="7.4" c_height="7.4" title="SCL" c_shape="RECT"><polygon points="4304.7 3126.7 4297.3 3126.7 4297.3 3119.3 4304.7 3119.3" stroke-width="0" /><circle cx="4301" cy="3123" r="2" stroke-width="0" /></g><g c_partid="part_pad" c_etype="pinpart" c_origin="4291,3113" layerid="11" number="7" net="" plated ="Y" c_shapetype="group" id="gge224" c_rotation="180" c_width="7.4" c_height="7.4" title="" c_shape="RECT"><polygon points="4294.7 3116.7 4287.3 3116.7 4287.3 3109.3 4294.7 3109.3" stroke-width="0" /><circle cx="4291" cy="3113" r="2" stroke-width="0" /></g><g c_partid="part_pad" c_etype="pinpart" c_origin="4291,3123" layerid="11" number="8" net="TX" plated ="Y" c_shapetype="group" id="gge227" c_rotation="180" c_width="7.4" c_height="7.4" title="TX" c_shape="RECT"><polygon points="4294.7 3126.7 4287.3 3126.7 4287.3 3119.3 4294.7 3119.3" stroke-width="0" /><circle cx="4291" cy="3123" r="2" stroke-width="0" /></g><g c_partid="part_pad" c_etype="pinpart" c_origin="4281,3113" layerid="11" number="9" net="SCL" plated ="Y" c_shapetype="group" id="gge230" c_rotation="180" c_width="7.4" c_height="7.4" title="SCL" c_shape="RECT"><polygon points="4284.7 3116.7 4277.3 3116.7 4277.3 3109.3 4284.7 3109.3" stroke-width="0" /><circle cx="4281" cy="3113" r="2" stroke-width="0" /></g><g c_partid="part_pad" c_etype="pinpart" c_origin="4281,3123" layerid="11" number="10" net="RX" plated ="Y" c_shapetype="group" id="gge233" c_rotation="180" c_width="7.4" c_height="7.4" title="RX" c_shape="RECT"><polygon points="4284.7 3126.7 4277.3 3126.7 4277.3 3119.3 4284.7 3119.3" stroke-width="0" /><circle cx="4281" cy="3123" r="2" stroke-width="0" /></g><g c_partid="part_pad" c_etype="pinpart" c_origin="4271,3113" layerid="11" number="11" net="" plated ="Y" c_shapetype="group" id="gge236" c_rotation="180" c_width="7.4" c_height="7.4" title="" c_shape="RECT"><polygon points="4274.7 3116.7 4267.3 3116.7 4267.3 3109.3 4274.7 3109.3" stroke-width="0" /><circle cx="4271" cy="3113" r="2" stroke-width="0" /></g><g c_partid="part_pad" c_etype="pinpart" c_origin="4271,3123" layerid="11" number="12" net="" plated ="Y" c_shapetype="group" id="gge239" c_rotation="180" c_width="7.4" c_height="7.4" title="" c_shape="RECT"><polygon points="4274.7 3126.7 4267.3 3126.7 4267.3 3119.3 4274.7 3119.3" stroke-width="0" /><circle cx="4271" cy="3123" r="2" stroke-width="0" /></g><g c_partid="part_pad" c_etype="pinpart" c_origin="4261,3113" layerid="11" number="13" net="" plated ="Y" c_shapetype="group" id="gge242" c_rotation="180" c_width="7.4" c_height="7.4" title="" c_shape="RECT"><polygon points="4264.7 3116.7 4257.3 3116.7 4257.3 3109.3 4264.7 3109.3" stroke-width="0" /><circle cx="4261" cy="3113" r="2" stroke-width="0" /></g><g c_partid="part_pad" c_etype="pinpart" c_origin="4261,3123" layerid="11" number="14" net="SCL" plated ="Y" c_shapetype="group" id="gge245" c_rotation="180" c_width="7.4" c_height="7.4" title="SCL" c_shape="RECT"><polygon points="4264.7 3126.7 4257.3 3126.7 4257.3 3119.3 4264.7 3119.3" stroke-width="0" /><circle cx="4261" cy="3123" r="2" stroke-width="0" /></g><g c_partid="part_pad" c_etype="pinpart" c_origin="4251,3113" layerid="11" number="15" net="" plated ="Y" c_shapetype="group" id="gge248" c_rotation="180" c_width="7.4" c_height="7.4" title="" c_shape="RECT"><polygon points="4254.7 3116.7 4247.3 3116.7 4247.3 3109.3 4254.7 3109.3" stroke-width="0" /><circle cx="4251" cy="3113" r="2" stroke-width="0" /></g><g c_partid="part_pad" c_etype="pinpart" c_origin="4251,3123" layerid="11" number="16" net="S1" plated ="Y" c_shapetype="group" id="gge251" c_rotation="180" c_width="7.4" c_height="7.4" title="S1" c_shape="RECT"><polygon points="4254.7 3126.7 4247.3 3126.7 4247.3 3119.3 4254.7 3119.3" stroke-width="0" /><circle cx="4251" cy="3123" r="2" stroke-width="0" /></g><g c_partid="part_pad" c_etype="pinpart" c_origin="4241,3113" layerid="11" number="17" net="" plated ="Y" c_shapetype="group" id="gge254" c_rotation="180" c_width="7.4" c_height="7.4" title="" c_shape="RECT"><polygon points="4244.7 3116.7 4237.3 3116.7 4237.3 3109.3 4244.7 3109.3" stroke-width="0" /><circle cx="4241" cy="3113" r="2" stroke-width="0" /></g><g c_partid="part_pad" c_etype="pinpart" c_origin="4241,3123" layerid="11" number="18" net="S0" plated ="Y" c_shapetype="group" id="gge257" c_rotation="180" c_width="7.4" c_height="7.4" title="S0" c_shape="RECT"><polygon points="4244.7 3126.7 4237.3 3126.7 4237.3 3119.3 4244.7 3119.3" stroke-width="0" /><circle cx="4241" cy="3123" r="2" stroke-width="0" /></g><g c_partid="part_pad" c_etype="pinpart" c_origin="4231,3113" layerid="11" number="19" net="" plated ="Y" c_shapetype="group" id="gge260" c_rotation="180" c_width="7.4" c_height="7.4" title="" c_shape="RECT"><polygon points="4234.7 3116.7 4227.3 3116.7 4227.3 3109.3 4234.7 3109.3" stroke-width="0" /><circle cx="4231" cy="3113" r="2" stroke-width="0" /></g><g c_partid="part_pad" c_etype="pinpart" c_origin="4231,3123" layerid="11" number="20" net="SCL" plated ="Y" c_shapetype="group" id="gge263" c_rotation="180" c_width="7.4" c_height="7.4" title="SCL" c_shape="RECT"><polygon points="4234.7 3126.7 4227.3 3126.7 4227.3 3119.3 4234.7 3119.3" stroke-width="0" /><circle cx="4231" cy="3123" r="2" stroke-width="0" /></g><g c_partid="part_pad" c_etype="pinpart" c_origin="4221,3113" layerid="11" number="21" net="" plated ="Y" c_shapetype="group" id="gge266" c_rotation="180" c_width="7.4" c_height="7.4" title="" c_shape="RECT"><polygon points="4224.7 3116.7 4217.3 3116.7 4217.3 3109.3 4224.7 3109.3" stroke-width="0" /><circle cx="4221" cy="3113" r="2" stroke-width="0" /></g><g c_partid="part_pad" c_etype="pinpart" c_origin="4221,3123" layerid="11" number="22" net="ENA" plated ="Y" c_shapetype="group" id="gge269" c_rotation="180" c_width="7.4" c_height="7.4" title="ENA" c_shape="RECT"><polygon points="4224.7 3126.7 4217.3 3126.7 4217.3 3119.3 4224.7 3119.3" stroke-width="0" /><circle cx="4221" cy="3123" r="2" stroke-width="0" /></g><g c_partid="part_pad" c_etype="pinpart" c_origin="4211,3113" layerid="11" number="23" net="" plated ="Y" c_shapetype="group" id="gge272" c_rotation="180" c_width="7.4" c_height="7.4" title="" c_shape="RECT"><polygon points="4214.7 3116.7 4207.3 3116.7 4207.3 3109.3 4214.7 3109.3" stroke-width="0" /><circle cx="4211" cy="3113" r="2" stroke-width="0" /></g><g c_partid="part_pad" c_etype="pinpart" c_origin="4211,3123" layerid="11" number="24" net="" plated ="Y" c_shapetype="group" id="gge275" c_rotation="180" c_width="7.4" c_height="7.4" title="" c_shape="RECT"><polygon points="4214.7 3126.7 4207.3 3126.7 4207.3 3119.3 4214.7 3119.3" stroke-width="0" /><circle cx="4211" cy="3123" r="2" stroke-width="0" /></g><g c_partid="part_pad" c_etype="pinpart" c_origin="4201,3113" layerid="11" number="25" net="SCL" plated ="Y" c_shapetype="group" id="gge278" c_rotation="180" c_width="7.4" c_height="7.4" title="SCL" c_shape="RECT"><polygon points="4204.7 3116.7 4197.3 3116.7 4197.3 3109.3 4204.7 3109.3" stroke-width="0" /><circle cx="4201" cy="3113" r="2" stroke-width="0" /></g><g c_partid="part_pad" c_etype="pinpart" c_origin="4201,3123" layerid="11" number="26" net="" plated ="Y" c_shapetype="group" id="gge281" c_rotation="180" c_width="7.4" c_height="7.4" title="" c_shape="RECT"><polygon points="4204.7 3126.7 4197.3 3126.7 4197.3 3119.3 4204.7 3119.3" stroke-width="0" /><circle cx="4201" cy="3123" r="2" stroke-width="0" /></g><g c_partid="part_pad" c_etype="pinpart" c_origin="4191,3113" layerid="11" number="27" net="" plated ="Y" c_shapetype="group" id="gge284" c_rotation="180" c_width="7.4" c_height="7.4" title="" c_shape="RECT"><polygon points="4194.7 3116.7 4187.3 3116.7 4187.3 3109.3 4194.7 3109.3" stroke-width="0" /><circle cx="4191" cy="3113" r="2" stroke-width="0" /></g><g c_partid="part_pad" c_etype="pinpart" c_origin="4191,3123" layerid="11" number="28" net="" plated ="Y" c_shapetype="group" id="gge287" c_rotation="180" c_width="7.4" c_height="7.4" title="" c_shape="RECT"><polygon points="4194.7 3126.7 4187.3 3126.7 4187.3 3119.3 4194.7 3119.3" stroke-width="0" /><circle cx="4191" cy="3123" r="2" stroke-width="0" /></g><g c_partid="part_pad" c_etype="pinpart" c_origin="4181,3113" layerid="11" number="29" net="" plated ="Y" c_shapetype="group" id="gge290" c_rotation="180" c_width="7.4" c_height="7.4" title="" c_shape="RECT"><polygon points="4184.7 3116.7 4177.3 3116.7 4177.3 3109.3 4184.7 3109.3" stroke-width="0" /><circle cx="4181" cy="3113" r="2" stroke-width="0" /></g><g c_partid="part_pad" c_etype="pinpart" c_origin="4181,3123" layerid="11" number="30" net="SCL" plated ="Y" c_shapetype="group" id="gge293" c_rotation="180" c_width="7.4" c_height="7.4" title="SCL" c_shape="RECT"><polygon points="4184.7 3126.7 4177.3 3126.7 4177.3 3119.3 4184.7 3119.3" stroke-width="0" /><circle cx="4181" cy="3123" r="2" stroke-width="0" /></g><g c_partid="part_pad" c_etype="pinpart" c_origin="4171,3113" layerid="11" number="31" net="" plated ="Y" c_shapetype="group" id="gge296" c_rotation="180" c_width="7.4" c_height="7.4" title="" c_shape="RECT"><polygon points="4174.7 3116.7 4167.3 3116.7 4167.3 3109.3 4174.7 3109.3" stroke-width="0" /><circle cx="4171" cy="3113" r="2" stroke-width="0" /></g><g c_partid="part_pad" c_etype="pinpart" c_origin="4171,3123" layerid="11" number="32" net="" plated ="Y" c_shapetype="group" id="gge299" c_rotation="180" c_width="7.4" c_height="7.4" title="" c_shape="RECT"><polygon points="4174.7 3126.7 4167.3 3126.7 4167.3 3119.3 4174.7 3119.3" stroke-width="0" /><circle cx="4171" cy="3123" r="2" stroke-width="0" /></g><g c_partid="part_pad" c_etype="pinpart" c_origin="4161,3113" layerid="11" number="33" net="" plated ="Y" c_shapetype="group" id="gge302" c_rotation="180" c_width="7.4" c_height="7.4" title="" c_shape="RECT"><polygon points="4164.7 3116.7 4157.3 3116.7 4157.3 3109.3 4164.7 3109.3" stroke-width="0" /><circle cx="4161" cy="3113" r="2" stroke-width="0" /></g><g c_partid="part_pad" c_etype="pinpart" c_origin="4161,3123" layerid="11" number="34" net="SCL" plated ="Y" c_shapetype="group" id="gge305" c_rotation="180" c_width="7.4" c_height="7.4" title="SCL" c_shape="RECT"><polygon points="4164.7 3126.7 4157.3 3126.7 4157.3 3119.3 4164.7 3119.3" stroke-width="0" /><circle cx="4161" cy="3123" r="2" stroke-width="0" /></g><g c_partid="part_pad" c_etype="pinpart" c_origin="4151,3113" layerid="11" number="35" net="" plated ="Y" c_shapetype="group" id="gge308" c_rotation="180" c_width="7.4" c_height="7.4" title="" c_shape="RECT"><polygon points="4154.7 3116.7 4147.3 3116.7 4147.3 3109.3 4154.7 3109.3" stroke-width="0" /><circle cx="4151" cy="3113" r="2" stroke-width="0" /></g><g c_partid="part_pad" c_etype="pinpart" c_origin="4151,3123" layerid="11" number="36" net="" plated ="Y" c_shapetype="group" id="gge311" c_rotation="180" c_width="7.4" c_height="7.4" title="" c_shape="RECT"><polygon points="4154.7 3126.7 4147.3 3126.7 4147.3 3119.3 4154.7 3119.3" stroke-width="0" /><circle cx="4151" cy="3123" r="2" stroke-width="0" /></g><g c_partid="part_pad" c_etype="pinpart" c_origin="4141,3113" layerid="11" number="37" net="" plated ="Y" c_shapetype="group" id="gge314" c_rotation="180" c_width="7.4" c_height="7.4" title="" c_shape="RECT"><polygon points="4144.7 3116.7 4137.3 3116.7 4137.3 3109.3 4144.7 3109.3" stroke-width="0" /><circle cx="4141" cy="3113" r="2" stroke-width="0" /></g><g c_partid="part_pad" c_etype="pinpart" c_origin="4141,3123" layerid="11" number="38" net="" plated ="Y" c_shapetype="group" id="gge317" c_rotation="180" c_width="7.4" c_height="7.4" title="" c_shape="RECT"><polygon points="4144.7 3126.7 4137.3 3126.7 4137.3 3119.3 4144.7 3119.3" stroke-width="0" /><circle cx="4141" cy="3123" r="2" stroke-width="0" /></g><g c_partid="part_pad" c_etype="pinpart" c_origin="4131,3113" layerid="11" number="39" net="SCL" plated ="Y" c_shapetype="group" id="gge320" c_rotation="180" c_width="7.4" c_height="7.4" title="SCL" c_shape="RECT"><polygon points="4134.7 3116.7 4127.3 3116.7 4127.3 3109.3 4134.7 3109.3" stroke-width="0" /><circle cx="4131" cy="3113" r="2" stroke-width="0" /></g><g c_partid="part_pad" c_etype="pinpart" c_origin="4131,3123" layerid="11" number="40" net="" plated ="Y" c_shapetype="group" id="gge323" c_rotation="180" c_width="7.4" c_height="7.4" title="" c_shape="RECT"><polygon points="4134.7 3126.7 4127.3 3126.7 4127.3 3119.3 4134.7 3119.3" stroke-width="0" /><circle cx="4131" cy="3123" r="2" stroke-width="0" /></g></g><g xmlns="http://www.w3.org/2000/svg" c_origin="4161,3168" c_para="package`H5-2.54`value`F185-1105A0BSYA1" c_partid="part_import_gge413" id="gge413" c_shapetype="group" c_etype="pinpart" layerid="1" c_rotation="90"><g c_partid="part_pcbtext" c_origin="4200,3168.45" c_rotation="0" c_mirror="" id="gge415" layerid="3" c_shapetype="group" ><path c_fontSize="4.5" c_fontFamily="" c_text="COLOR" d="M 4203.07 3167.02 L 4202.86 3166.61 L 4202.45 3166.2 L 4202.05 3166 L 4201.23 3166 L 4200.82 3166.2 L 4200.41 3166.61 L 4200.2 3167.02 L 4200 3167.63 L 4200 3168.65 L 4200.2 3169.27 L 4200.41 3169.68 L 4200.82 3170.09 L 4201.23 3170.29 L 4202.05 3170.29 L 4202.45 3170.09 L 4202.86 3169.68 L 4203.07 3169.27 M 4205.65 3166 L 4205.24 3166.2 L 4204.83 3166.61 L 4204.62 3167.02 L 4204.42 3167.63 L 4204.42 3168.65 L 4204.62 3169.27 L 4204.83 3169.68 L 4205.24 3170.09 L 4205.65 3170.29 L 4206.46 3170.29 L 4206.87 3170.09 L 4207.28 3169.68 L 4207.49 3169.27 L 4207.69 3168.65 L 4207.69 3167.63 L 4207.49 3167.02 L 4207.28 3166.61 L 4206.87 3166.2 L 4206.46 3166 L 4205.65 3166 M 4209.04 3166 L 4209.04 3170.29 M 4209.04 3170.29 L 4211.5 3170.29 M 4214.07 3166 L 4213.66 3166.2 L 4213.25 3166.61 L 4213.05 3167.02 L 4212.85 3167.63 L 4212.85 3168.65 L 4213.05 3169.27 L 4213.25 3169.68 L 4213.66 3170.09 L 4214.07 3170.29 L 4214.89 3170.29 L 4215.3 3170.09 L 4215.71 3169.68 L 4215.91 3169.27 L 4216.12 3168.65 L 4216.12 3167.63 L 4215.91 3167.02 L 4215.71 3166.61 L 4215.3 3166.2 L 4214.89 3166 L 4214.07 3166 M 4217.47 3166 L 4217.47 3170.29 M 4217.47 3166 L 4219.31 3166 L 4219.92 3166.2 L 4220.13 3166.4 L 4220.33 3166.81 L 4220.33 3167.22 L 4220.13 3167.63 L 4219.92 3167.84 L 4219.31 3168.04 L 4217.47 3168.04 M 4218.9 3168.04 L 4220.33 3170.29" fill="none"  stroke-width="0.7" c_note="note_pre" /></g><polyline points="4136 3173 4136 3163 4186 3163 4186 3173 4136 3173" stroke-width="1" c_shapetype="line" stroke-linecap="round" fill="none" layerid="3" net="" id="gge417" /><g c_partid="part_pad" c_etype="pinpart" c_origin="4141,3168" layerid="11" number="1" net="TX" plated ="Y" c_shapetype="group" id="gge418" c_rotation="90" c_width="6.5" c_height="6.5" title="TX" c_shape="RECT"><polygon points="4137.75 3171.25 4137.75 3164.75 4144.25 3164.75 4144.25 3171.25" stroke-width="0" /><circle cx="4141" cy="3168" r="1.75" stroke-width="0" /></g><g c_partid="part_pad" c_etype="pinpart" c_origin="4151,3168" layerid="11" number="2" net="RX" plated ="Y" c_shapetype="group" id="gge421" c_rotation="90" c_width="6.5" c_height="6.5" title="RX" c_shape="ELLIPSE"><ellipse cx="4151" cy="3168" rx="3.25" ry="3.25" stroke-width="0" /><circle cx="4151" cy="3168" r="1.75" stroke-width="0" /></g><g c_partid="part_pad" c_etype="pinpart" c_origin="4161,3168" layerid="11" number="3" net="SCL" plated ="Y" c_shapetype="group" id="gge424" c_rotation="90" c_width="6.5" c_height="6.5" title="SCL" c_shape="ELLIPSE"><ellipse cx="4161" cy="3168" rx="3.25" ry="3.25" stroke-width="0" /><circle cx="4161" cy="3168" r="1.75" stroke-width="0" /></g><g c_partid="part_pad" c_etype="pinpart" c_origin="4171,3168" layerid="11" number="4" net="5V" plated ="Y" c_shapetype="group" id="gge427" c_rotation="90" c_width="6.5" c_height="6.5" title="5V" c_shape="ELLIPSE"><ellipse cx="4171" cy="3168" rx="3.25" ry="3.25" stroke-width="0" /><circle cx="4171" cy="3168" r="1.75" stroke-width="0" /></g><g c_partid="part_pad" c_etype="pinpart" c_origin="4181,3168" layerid="11" number="5" net="NC" plated ="Y" c_shapetype="group" id="gge430" c_rotation="90" c_width="6.5" c_height="6.5" title="NC" c_shape="ELLIPSE"><ellipse cx="4181" cy="3168" rx="3.25" ry="3.25" stroke-width="0" /><circle cx="4181" cy="3168" r="1.75" stroke-width="0" /></g></g><g xmlns="http://www.w3.org/2000/svg" c_origin="4157,3209" c_para="package`H4-2.54`value`F185-1104A1BSYA1" c_partid="part_import_gge433" id="gge433" c_shapetype="group" c_etype="pinpart" layerid="1" c_rotation="90"><g c_partid="part_pcbtext" c_origin="4201.91,3207" c_rotation="0" c_mirror="" id="gge435" layerid="3" c_shapetype="group" ><path c_fontSize="4.5" c_fontFamily="" c_text="TEMPERATURA" d="M 4180.4299 3206.9999 L 4180.4299 3211.2899 M 4178.9999 3206.9999 L 4181.8599 3206.9999 M 4183.2099 3206.9999 L 4183.2099 3211.2899 M 4183.2099 3206.9999 L 4185.8699 3206.9999 M 4183.2099 3209.0399 L 4184.8499 3209.0399 M 4183.2099 3211.2899 L 4185.8699 3211.2899 M 4187.2199 3206.9999 L 4187.2199 3211.2899 M 4187.2199 3206.9999 L 4188.8599 3211.2899 M 4190.4999 3206.9999 L 4188.8599 3211.2899 M 4190.4999 3206.9999 L 4190.4999 3211.2899 M 4191.8499 3206.9999 L 4191.8499 3211.2899 M 4191.8499 3206.9999 L 4193.6899 3206.9999 L 4194.2999 3207.1999 L 4194.4999 3207.3999 L 4194.7099 3207.8099 L 4194.7099 3208.4299 L 4194.4999 3208.8399 L 4194.2999 3209.0399 L 4193.6899 3209.2499 L 4191.8499 3209.2499 M 4196.0599 3206.9999 L 4196.0599 3211.2899 M 4196.0599 3206.9999 L 4198.7199 3206.9999 M 4196.0599 3209.0399 L 4197.6999 3209.0399 M 4196.0599 3211.2899 L 4198.7199 3211.2899 M 4200.0699 3206.9999 L 4200.0699 3211.2899 M 4200.0699 3206.9999 L 4201.9099 3206.9999 L 4202.5199 3207.1999 L 4202.7299 3207.3999 L 4202.9299 3207.8099 L 4202.9299 3208.2199 L 4202.7299 3208.6299 L 4202.5199 3208.8399 L 4201.9099 3209.0399 L 4200.0699 3209.0399 M 4201.4999 3209.0399 L 4202.9299 3211.2899 M 4205.9199 3206.9999 L 4204.2799 3211.2899 M 4205.9199 3206.9999 L 4207.5499 3211.2899 M 4204.8999 3209.8599 L 4206.9399 3209.8599 M 4210.3399 3206.9999 L 4210.3399 3211.2899 M 4208.8999 3206.9999 L 4211.7699 3206.9999 M 4213.1199 3206.9999 L 4213.1199 3210.0599 L 4213.3199 3210.6799 L 4213.7299 3211.0899 L 4214.3499 3211.2899 L 4214.7499 3211.2899 L 4215.3699 3211.0899 L 4215.7799 3210.6799 L 4215.9799 3210.0599 L 4215.9799 3206.9999 M 4217.3299 3206.9999 L 4217.3299 3211.2899 M 4217.3299 3206.9999 L 4219.1699 3206.9999 L 4219.7899 3207.1999 L 4219.9899 3207.3999 L 4220.1999 3207.8099 L 4220.1999 3208.2199 L 4219.9899 3208.6299 L 4219.7899 3208.8399 L 4219.1699 3209.0399 L 4217.3299 3209.0399 M 4218.7599 3209.0399 L 4220.1999 3211.2899 M 4223.1799 3206.9999 L 4221.5499 3211.2899 M 4223.1799 3206.9999 L 4224.8199 3211.2899 M 4222.1599 3209.8599 L 4224.1999 3209.8599" fill="none"  stroke-width="0.7" c_note="note_pre" /></g><polyline points="4137 3214 4137 3204 4177 3204 4177 3214 4137 3214" stroke-width="1" c_shapetype="line" stroke-linecap="round" fill="none" layerid="3" net="" id="gge437" /><g c_partid="part_pad" c_etype="pinpart" c_origin="4142,3209" layerid="11" number="1" net="5V" plated ="Y" c_shapetype="group" id="gge438" c_rotation="90" c_width="6.5" c_height="6.5" title="5V" c_shape="RECT"><polygon points="4138.75 3212.25 4138.75 3205.75 4145.25 3205.75 4145.25 3212.25" stroke-width="0" /><circle cx="4142" cy="3209" r="1.75" stroke-width="0" /></g><g c_partid="part_pad" c_etype="pinpart" c_origin="4152,3209" layerid="11" number="2" net="SIGNALTWW" plated ="Y" c_shapetype="group" id="gge441" c_rotation="90" c_width="6.5" c_height="6.5" title="SIGNALTWW" c_shape="ELLIPSE"><ellipse cx="4152" cy="3209" rx="3.25" ry="3.25" stroke-width="0" /><circle cx="4152" cy="3209" r="1.75" stroke-width="0" /></g><g c_partid="part_pad" c_etype="pinpart" c_origin="4162,3209" layerid="11" number="3" net="SCL" plated ="Y" c_shapetype="group" id="gge444" c_rotation="90" c_width="6.5" c_height="6.5" title="SCL" c_shape="ELLIPSE"><ellipse cx="4162" cy="3209" rx="3.25" ry="3.25" stroke-width="0" /><circle cx="4162" cy="3209" r="1.75" stroke-width="0" /></g><g c_partid="part_pad" c_etype="pinpart" c_origin="4172,3209" layerid="11" number="4" net="" plated ="Y" c_shapetype="group" id="gge447" c_rotation="90" c_width="6.5" c_height="6.5" title="" c_shape="ELLIPSE"><ellipse cx="4172" cy="3209" rx="3.25" ry="3.25" stroke-width="0" /><circle cx="4172" cy="3209" r="1.75" stroke-width="0" /></g></g><g xmlns="http://www.w3.org/2000/svg" c_origin="4316,3193" c_para="package`H5-2.54`value`F185-1105A0BSYA1" c_partid="part_import_gge450" id="gge450" c_shapetype="group" c_etype="pinpart" layerid="1" c_rotation="270"><g c_partid="part_pcbtext" c_origin="4326,3184.45" c_rotation="360" c_mirror="" id="gge452" layerid="3" c_shapetype="group" ><path c_fontSize="4.5" c_fontFamily="" c_text="RTC" d="M 4326 3182 L 4326 3186.29 M 4326 3182 L 4327.84 3182 L 4328.45 3182.2 L 4328.66 3182.4 L 4328.86 3182.81 L 4328.86 3183.22 L 4328.66 3183.63 L 4328.45 3183.84 L 4327.84 3184.04 L 4326 3184.04 M 4327.43 3184.04 L 4328.86 3186.29 M 4331.65 3182 L 4331.65 3186.29 M 4330.21 3182 L 4333.08 3182 M 4337.5 3183.02 L 4337.29 3182.61 L 4336.88 3182.2 L 4336.47 3182 L 4335.65 3182 L 4335.25 3182.2 L 4334.84 3182.61 L 4334.63 3183.02 L 4334.43 3183.63 L 4334.43 3184.65 L 4334.63 3185.27 L 4334.84 3185.68 L 4335.25 3186.09 L 4335.65 3186.29 L 4336.47 3186.29 L 4336.88 3186.09 L 4337.29 3185.68 L 4337.5 3185.27" fill="none"  stroke-width="0.7" c_note="note_pre" /></g><polyline points="4341 3188 4341 3198 4291 3198 4291 3188 4341 3188" stroke-width="1" c_shapetype="line" stroke-linecap="round" fill="none" layerid="3" net="" id="gge454" /><g c_partid="part_pad" c_etype="pinpart" c_origin="4336,3193" layerid="11" number="1" net="" plated ="Y" c_shapetype="group" id="gge455" c_rotation="270" c_width="6.5" c_height="6.5" title="" c_shape="RECT"><polygon points="4339.25 3189.75 4339.25 3196.25 4332.75 3196.25 4332.75 3189.75" stroke-width="0" /><circle cx="4336" cy="3193" r="1.75" stroke-width="0" /></g><g c_partid="part_pad" c_etype="pinpart" c_origin="4326,3193" layerid="11" number="2" net="SCL" plated ="Y" c_shapetype="group" id="gge458" c_rotation="270" c_width="6.5" c_height="6.5" title="SCL" c_shape="ELLIPSE"><ellipse cx="4326" cy="3193" rx="3.25" ry="3.25" stroke-width="0" /><circle cx="4326" cy="3193" r="1.75" stroke-width="0" /></g><g c_partid="part_pad" c_etype="pinpart" c_origin="4316,3193" layerid="11" number="3" net="SDA" plated ="Y" c_shapetype="group" id="gge461" c_rotation="270" c_width="6.5" c_height="6.5" title="SDA" c_shape="ELLIPSE"><ellipse cx="4316" cy="3193" rx="3.25" ry="3.25" stroke-width="0" /><circle cx="4316" cy="3193" r="1.75" stroke-width="0" /></g><g c_partid="part_pad" c_etype="pinpart" c_origin="4306,3193" layerid="11" number="4" net="5V" plated ="Y" c_shapetype="group" id="gge464" c_rotation="270" c_width="6.5" c_height="6.5" title="5V" c_shape="ELLIPSE"><ellipse cx="4306" cy="3193" rx="3.25" ry="3.25" stroke-width="0" /><circle cx="4306" cy="3193" r="1.75" stroke-width="0" /></g><g c_partid="part_pad" c_etype="pinpart" c_origin="4296,3193" layerid="11" number="5" net="SCL" plated ="Y" c_shapetype="group" id="gge467" c_rotation="270" c_width="6.5" c_height="6.5" title="SCL" c_shape="ELLIPSE"><ellipse cx="4296" cy="3193" rx="3.25" ry="3.25" stroke-width="0" /><circle cx="4296" cy="3193" r="1.75" stroke-width="0" /></g></g><polyline points="4057 3050 4381 3050 4381 3315 4056 3315 4056 3049" stroke-width="1" c_shapetype="line" stroke-linecap="round" fill="none" layerid="10" net="" id="gge470" /><path d="M4098,3304L4199.046,3303.626M4266.954,3303.374L4368,3303M4103.011,3306.981L4098,3304L4102.989,3300.982M4363.011,3306.018L4368,3303L4362.989,3300.019M 4206.485 3299.502L4206.031 3298.604 L4204.66 3298.149 L4203.75 3298.153 L4202.391 3298.618 L4201.487 3299.981 L4201.045 3302.253 L4201.053 3304.523 L4201.51 3306.341 L4202.423 3307.248 L4203.785 3307.702 L4204.245 3307.701 L4205.603 3307.236 L4206.51 3306.322 L4206.955 3304.961 L4206.953 3304.501 L4206.498 3303.142 L4205.585 3302.236 L4204.223 3301.791 L4203.763 3301.793 L4202.405 3302.248 L4201.498 3303.161 L4201.053 3304.523 M 4212.21 3298.121L4210.841 3298.586 L4210.395 3299.488 L4210.398 3300.398 L4210.851 3301.306 L4211.763 3301.763 L4213.585 3302.206 L4214.947 3302.661 L4215.86 3303.568 L4216.323 3304.466 L4216.328 3305.836 L4215.872 3306.748 L4215.423 3307.199 L4214.065 3307.664 L4212.245 3307.671 L4210.873 3307.216 L4210.422 3306.768 L4209.958 3305.86 L4209.953 3304.49 L4210.41 3303.588 L4211.317 3302.675 L4212.675 3302.21 L4214.493 3301.753 L4215.401 3301.289 L4215.848 3300.378 L4215.845 3299.468 L4215.391 3298.569 L4214.03 3298.114 L4212.21 3298.121 M 4219.777 3305.363L4219.328 3305.825 L4219.78 3306.273 L4220.238 3305.822 L4219.777 3305.363 M 4228.66 3298.06L4224.12 3298.077 L4223.675 3302.169 L4224.133 3301.717 L4225.491 3301.252 L4226.851 3301.247 L4228.223 3301.702 L4229.136 3302.609 L4229.591 3303.967 L4229.595 3304.877 L4229.15 3306.239 L4228.243 3307.152 L4226.875 3307.617 L4225.515 3307.622 L4224.153 3307.167 L4223.692 3306.719 L4223.238 3305.81 M 4234.84 3298.037L4233.481 3298.502 L4233.035 3299.404 L4233.038 3300.314 L4233.491 3301.222 L4234.403 3301.679 L4236.225 3302.122 L4237.586 3302.577 L4238.5 3303.484 L4238.953 3304.382 L4238.958 3305.752 L4238.512 3306.664 L4238.063 3307.116 L4236.695 3307.581 L4234.875 3307.587 L4233.513 3307.132 L4233.062 3306.684 L4232.598 3305.776 L4232.593 3304.406 L4233.05 3303.504 L4233.946 3302.591 L4235.315 3302.126 L4237.133 3301.669 L4238.041 3301.206 L4238.488 3300.294 L4238.485 3299.384 L4238.031 3298.486 L4236.66 3298.031 L4234.84 3298.037 M 4241.941 3301.191L4241.965 3307.561 M 4241.948 3303.011L4243.313 3301.646 L4244.221 3301.183 L4245.581 3301.178 L4246.493 3301.634 L4246.948 3302.993 L4246.965 3307.543 M 4246.948 3302.993L4248.313 3301.628 L4249.221 3301.164 L4250.581 3301.159 L4251.493 3301.616 L4251.948 3302.974 L4251.965 3307.524 M 4254.941 3301.143L4254.965 3307.513 M 4254.948 3302.963L4256.313 3301.598 L4257.221 3301.135 L4258.581 3301.129 L4259.493 3301.586 L4259.948 3302.944 L4259.965 3307.494 M 4259.948 3302.944L4261.313 3301.579 L4262.221 3301.116 L4263.581 3301.111 L4264.493 3301.568 L4264.948 3302.926 L4264.965 3307.476 " stroke-width="1" fill="none" c_shapetype="group" layerid="3" c_fontSize="" id="gge721" /><path d="M4080,3063L4080,3133.591M4080,3202.409L4080,3273M4077,3068L4080,3063L4083,3068M4077,3268L4080,3273L4083,3268M 4074.541 3194.959L4074.541 3199.499 L4078.641 3199.959 L4078.181 3199.499 L4077.731 3198.139 L4077.731 3196.769 L4078.181 3195.409 L4079.091 3194.499 L4080.451 3194.049 L4081.361 3194.049 L4082.731 3194.499 L4083.641 3195.409 L4084.091 3196.769 L4084.091 3198.139 L4083.641 3199.499 L4083.181 3199.959 L4082.271 3200.409 M 4074.541 3190.139L4074.541 3185.139 L4078.181 3187.859 L4078.181 3186.499 L4078.641 3185.589 L4079.091 3185.139 L4080.451 3184.679 L4081.361 3184.679 L4082.731 3185.139 L4083.641 3186.049 L4084.091 3187.409 L4084.091 3188.769 L4083.641 3190.139 L4083.181 3190.589 L4082.271 3191.049 M 4081.821 3181.229L4082.271 3181.679 L4082.731 3181.229 L4082.271 3180.769 L4081.821 3181.229 M 4074.541 3176.859L4074.541 3171.859 L4078.181 3174.589 L4078.181 3173.229 L4078.641 3172.319 L4079.091 3171.859 L4080.451 3171.409 L4081.361 3171.409 L4082.731 3171.859 L4083.641 3172.769 L4084.091 3174.139 L4084.091 3175.499 L4083.641 3176.859 L4083.181 3177.319 L4082.271 3177.769 M 4074.541 3163.859L4080.911 3168.409 L4080.911 3161.589 M 4074.541 3163.859L4084.091 3163.859 M 4077.731 3158.589L4084.091 3158.589 M 4079.541 3158.589L4078.181 3157.229 L4077.731 3156.319 L4077.731 3154.959 L4078.181 3154.049 L4079.541 3153.589 L4084.091 3153.589 M 4079.541 3153.589L4078.181 3152.229 L4077.731 3151.319 L4077.731 3149.959 L4078.181 3149.049 L4079.541 3148.589 L4084.091 3148.589 M 4077.731 3145.589L4084.091 3145.589 M 4079.541 3145.589L4078.181 3144.229 L4077.731 3143.319 L4077.731 3141.959 L4078.181 3141.049 L4079.541 3140.589 L4084.091 3140.589 M 4079.541 3140.589L4078.181 3139.229 L4077.731 3138.319 L4077.731 3136.959 L4078.181 3136.049 L4079.541 3135.589 L4084.091 3135.589 " stroke-width="1" fill="none" c_shapetype="group" layerid="3" c_fontSize="" id="gge724" /><g c_partid="part_pcbtext" c_origin="4104,3250.33" c_rotation="0" c_mirror="" id="gge726" layerid="1" c_shapetype="group" ><path c_fontSize="3.937" c_fontFamily="" c_text="Laboratorio Sistemas Distribuidos" d="M 4104 3248.1801 L 4104 3251.9401 M 4104 3251.9401 L 4106.15 3251.9401 M 4109.48 3249.4401 L 4109.48 3251.9401 M 4109.48 3249.9701 L 4109.12 3249.6101 L 4108.76 3249.4401 L 4108.22 3249.4401 L 4107.87 3249.6101 L 4107.51 3249.9701 L 4107.33 3250.5101 L 4107.33 3250.8701 L 4107.51 3251.4001 L 4107.87 3251.7601 L 4108.22 3251.9401 L 4108.76 3251.9401 L 4109.12 3251.7601 L 4109.48 3251.4001 M 4110.66 3248.1801 L 4110.66 3251.9401 M 4110.66 3249.9701 L 4111.02 3249.6101 L 4111.37 3249.4401 L 4111.91 3249.4401 L 4112.27 3249.6101 L 4112.63 3249.9701 L 4112.8 3250.5101 L 4112.8 3250.8701 L 4112.63 3251.4001 L 4112.27 3251.7601 L 4111.91 3251.9401 L 4111.37 3251.9401 L 4111.02 3251.7601 L 4110.66 3251.4001 M 4114.88 3249.4401 L 4114.52 3249.6101 L 4114.16 3249.9701 L 4113.99 3250.5101 L 4113.99 3250.8701 L 4114.16 3251.4001 L 4114.52 3251.7601 L 4114.88 3251.9401 L 4115.42 3251.9401 L 4115.78 3251.7601 L 4116.13 3251.4001 L 4116.31 3250.8701 L 4116.31 3250.5101 L 4116.13 3249.9701 L 4115.78 3249.6101 L 4115.42 3249.4401 L 4114.88 3249.4401 M 4117.49 3249.4401 L 4117.49 3251.9401 M 4117.49 3250.5101 L 4117.67 3249.9701 L 4118.03 3249.6101 L 4118.39 3249.4401 L 4118.92 3249.4401 M 4122.25 3249.4401 L 4122.25 3251.9401 M 4122.25 3249.9701 L 4121.9 3249.6101 L 4121.54 3249.4401 L 4121 3249.4401 L 4120.64 3249.6101 L 4120.28 3249.9701 L 4120.11 3250.5101 L 4120.11 3250.8701 L 4120.28 3251.4001 L 4120.64 3251.7601 L 4121 3251.9401 L 4121.54 3251.9401 L 4121.9 3251.7601 L 4122.25 3251.4001 M 4123.97 3248.1801 L 4123.97 3251.2201 L 4124.15 3251.7601 L 4124.51 3251.9401 L 4124.87 3251.9401 M 4123.43 3249.4401 L 4124.69 3249.4401 M 4126.94 3249.4401 L 4126.58 3249.6101 L 4126.23 3249.9701 L 4126.05 3250.5101 L 4126.05 3250.8701 L 4126.23 3251.4001 L 4126.58 3251.7601 L 4126.94 3251.9401 L 4127.48 3251.9401 L 4127.84 3251.7601 L 4128.19 3251.4001 L 4128.37 3250.8701 L 4128.37 3250.5101 L 4128.19 3249.9701 L 4127.84 3249.6101 L 4127.48 3249.4401 L 4126.94 3249.4401 M 4129.55 3249.4401 L 4129.55 3251.9401 M 4129.55 3250.5101 L 4129.73 3249.9701 L 4130.09 3249.6101 L 4130.45 3249.4401 L 4130.99 3249.4401 M 4132.17 3248.1801 L 4132.35 3248.3601 L 4132.53 3248.1801 L 4132.35 3248.0001 L 4132.17 3248.1801 M 4132.35 3249.4401 L 4132.35 3251.9401 M 4134.6 3249.4401 L 4134.24 3249.6101 L 4133.89 3249.9701 L 4133.71 3250.5101 L 4133.71 3250.8701 L 4133.89 3251.4001 L 4134.24 3251.7601 L 4134.6 3251.9401 L 4135.14 3251.9401 L 4135.5 3251.7601 L 4135.85 3251.4001 L 4136.03 3250.8701 L 4136.03 3250.5101 L 4135.85 3249.9701 L 4135.5 3249.6101 L 4135.14 3249.4401 L 4134.6 3249.4401 M 4142.48 3248.7201 L 4142.12 3248.3601 L 4141.58 3248.1801 L 4140.86 3248.1801 L 4140.33 3248.3601 L 4139.97 3248.7201 L 4139.97 3249.0801 L 4140.15 3249.4401 L 4140.33 3249.6101 L 4140.69 3249.7901 L 4141.76 3250.1501 L 4142.12 3250.3301 L 4142.3 3250.5101 L 4142.48 3250.8701 L 4142.48 3251.4001 L 4142.12 3251.7601 L 4141.58 3251.9401 L 4140.86 3251.9401 L 4140.33 3251.7601 L 4139.97 3251.4001 M 4143.66 3248.1801 L 4143.84 3248.3601 L 4144.01 3248.1801 L 4143.84 3248.0001 L 4143.66 3248.1801 M 4143.84 3249.4401 L 4143.84 3251.9401 M 4147.16 3249.9701 L 4146.98 3249.6101 L 4146.45 3249.4401 L 4145.91 3249.4401 L 4145.37 3249.6101 L 4145.2 3249.9701 L 4145.37 3250.3301 L 4145.73 3250.5101 L 4146.63 3250.6901 L 4146.98 3250.8701 L 4147.16 3251.2201 L 4147.16 3251.4001 L 4146.98 3251.7601 L 4146.45 3251.9401 L 4145.91 3251.9401 L 4145.37 3251.7601 L 4145.2 3251.4001 M 4148.88 3248.1801 L 4148.88 3251.2201 L 4149.06 3251.7601 L 4149.42 3251.9401 L 4149.78 3251.9401 M 4148.34 3249.4401 L 4149.6 3249.4401 M 4150.96 3250.5101 L 4153.11 3250.5101 L 4153.11 3250.1501 L 4152.93 3249.7901 L 4152.75 3249.6101 L 4152.39 3249.4401 L 4151.85 3249.4401 L 4151.49 3249.6101 L 4151.14 3249.9701 L 4150.96 3250.5101 L 4150.96 3250.8701 L 4151.14 3251.4001 L 4151.49 3251.7601 L 4151.85 3251.9401 L 4152.39 3251.9401 L 4152.75 3251.7601 L 4153.11 3251.4001 M 4154.29 3249.4401 L 4154.29 3251.9401 M 4154.29 3250.1501 L 4154.82 3249.6101 L 4155.18 3249.4401 L 4155.72 3249.4401 L 4156.08 3249.6101 L 4156.25 3250.1501 L 4156.25 3251.9401 M 4156.25 3250.1501 L 4156.79 3249.6101 L 4157.15 3249.4401 L 4157.69 3249.4401 L 4158.04 3249.6101 L 4158.22 3250.1501 L 4158.22 3251.9401 M 4161.55 3249.4401 L 4161.55 3251.9401 M 4161.55 3249.9701 L 4161.19 3249.6101 L 4160.84 3249.4401 L 4160.3 3249.4401 L 4159.94 3249.6101 L 4159.58 3249.9701 L 4159.4 3250.5101 L 4159.4 3250.8701 L 4159.58 3251.4001 L 4159.94 3251.7601 L 4160.3 3251.9401 L 4160.84 3251.9401 L 4161.19 3251.7601 L 4161.55 3251.4001 M 4164.7 3249.9701 L 4164.52 3249.6101 L 4163.99 3249.4401 L 4163.45 3249.4401 L 4162.91 3249.6101 L 4162.73 3249.9701 L 4162.91 3250.3301 L 4163.27 3250.5101 L 4164.16 3250.6901 L 4164.52 3250.8701 L 4164.7 3251.2201 L 4164.7 3251.4001 L 4164.52 3251.7601 L 4163.99 3251.9401 L 4163.45 3251.9401 L 4162.91 3251.7601 L 4162.73 3251.4001 M 4168.64 3248.1801 L 4168.64 3251.9401 M 4168.64 3248.1801 L 4169.89 3248.1801 L 4170.43 3248.3601 L 4170.79 3248.7201 L 4170.96 3249.0801 L 4171.14 3249.6101 L 4171.14 3250.5101 L 4170.96 3251.0501 L 4170.79 3251.4001 L 4170.43 3251.7601 L 4169.89 3251.9401 L 4168.64 3251.9401 M 4172.32 3248.1801 L 4172.5 3248.3601 L 4172.68 3248.1801 L 4172.5 3248.0001 L 4172.32 3248.1801 M 4172.5 3249.4401 L 4172.5 3251.9401 M 4175.83 3249.9701 L 4175.65 3249.6101 L 4175.12 3249.4401 L 4174.58 3249.4401 L 4174.04 3249.6101 L 4173.86 3249.9701 L 4174.04 3250.3301 L 4174.4 3250.5101 L 4175.3 3250.6901 L 4175.65 3250.8701 L 4175.83 3251.2201 L 4175.83 3251.4001 L 4175.65 3251.7601 L 4175.12 3251.9401 L 4174.58 3251.9401 L 4174.04 3251.7601 L 4173.86 3251.4001 M 4177.55 3248.1801 L 4177.55 3251.2201 L 4177.73 3251.7601 L 4178.09 3251.9401 L 4178.45 3251.9401 M 4177.01 3249.4401 L 4178.27 3249.4401 M 4179.63 3249.4401 L 4179.63 3251.9401 M 4179.63 3250.5101 L 4179.81 3249.9701 L 4180.16 3249.6101 L 4180.52 3249.4401 L 4181.06 3249.4401 M 4182.24 3248.1801 L 4182.42 3248.3601 L 4182.6 3248.1801 L 4182.42 3248.0001 L 4182.24 3248.1801 M 4182.42 3249.4401 L 4182.42 3251.9401 M 4183.78 3248.1801 L 4183.78 3251.9401 M 4183.78 3249.9701 L 4184.14 3249.6101 L 4184.49 3249.4401 L 4185.03 3249.4401 L 4185.39 3249.6101 L 4185.75 3249.9701 L 4185.93 3250.5101 L 4185.93 3250.8701 L 4185.75 3251.4001 L 4185.39 3251.7601 L 4185.03 3251.9401 L 4184.49 3251.9401 L 4184.14 3251.7601 L 4183.78 3251.4001 M 4187.11 3249.4401 L 4187.11 3251.2201 L 4187.29 3251.7601 L 4187.64 3251.9401 L 4188.18 3251.9401 L 4188.54 3251.7601 L 4189.07 3251.2201 M 4189.07 3249.4401 L 4189.07 3251.9401 M 4190.26 3248.1801 L 4190.44 3248.3601 L 4190.61 3248.1801 L 4190.44 3248.0001 L 4190.26 3248.1801 M 4190.44 3249.4401 L 4190.44 3251.9401 M 4193.94 3248.1801 L 4193.94 3251.9401 M 4193.94 3249.9701 L 4193.58 3249.6101 L 4193.23 3249.4401 L 4192.69 3249.4401 L 4192.33 3249.6101 L 4191.97 3249.9701 L 4191.8 3250.5101 L 4191.8 3250.8701 L 4191.97 3251.4001 L 4192.33 3251.7601 L 4192.69 3251.9401 L 4193.23 3251.9401 L 4193.58 3251.7601 L 4193.94 3251.4001 M 4196.02 3249.4401 L 4195.66 3249.6101 L 4195.3 3249.9701 L 4195.12 3250.5101 L 4195.12 3250.8701 L 4195.3 3251.4001 L 4195.66 3251.7601 L 4196.02 3251.9401 L 4196.56 3251.9401 L 4196.91 3251.7601 L 4197.27 3251.4001 L 4197.45 3250.8701 L 4197.45 3250.5101 L 4197.27 3249.9701 L 4196.91 3249.6101 L 4196.56 3249.4401 L 4196.02 3249.4401 M 4200.6 3249.9701 L 4200.42 3249.6101 L 4199.88 3249.4401 L 4199.35 3249.4401 L 4198.81 3249.6101 L 4198.63 3249.9701 L 4198.81 3250.3301 L 4199.17 3250.5101 L 4200.06 3250.6901 L 4200.42 3250.8701 L 4200.6 3251.2201 L 4200.6 3251.4001 L 4200.42 3251.7601 L 4199.88 3251.9401 L 4199.35 3251.9401 L 4198.81 3251.7601 L 4198.63 3251.4001" fill="none"  stroke-width="0.8"  /></g><g c_partid="part_pcbtext" c_origin="4104,3241.79" c_rotation="0" c_mirror="" id="gge728" layerid="1" c_shapetype="group" ><path c_fontSize="4.724" c_fontFamily="" c_text="Shield Ardu_Rapb v0.0" d="M 4107.01 3239.86L4106.58 3239.43 L4105.93 3239.21 L4105.07 3239.21 L4104.43 3239.43 L4104 3239.86 L4104 3240.29 L4104.21 3240.72 L4104.43 3240.93 L4104.86 3241.15 L4106.15 3241.58 L4106.58 3241.79 L4106.79 3242 L4107.01 3242.43 L4107.01 3243.08 L4106.58 3243.51 L4105.93 3243.72 L4105.07 3243.72 L4104.43 3243.51 L4104 3243.08 M 4108.42 3239.21L4108.42 3243.72 M 4108.42 3241.58L4109.07 3240.93 L4109.5 3240.72 L4110.14 3240.72 L4110.57 3240.93 L4110.79 3241.58 L4110.79 3243.72 M 4112.2 3239.21L4112.42 3239.43 L4112.63 3239.21 L4112.42 3239 L4112.2 3239.21 M 4112.42 3240.72L4112.42 3243.72 M 4114.05 3242L4116.63 3242 L4116.63 3241.58 L4116.41 3241.15 L4116.2 3240.93 L4115.77 3240.72 L4115.12 3240.72 L4114.69 3240.93 L4114.26 3241.36 L4114.05 3242 L4114.05 3242.43 L4114.26 3243.08 L4114.69 3243.51 L4115.12 3243.72 L4115.77 3243.72 L4116.2 3243.51 L4116.63 3243.08 M 4118.04 3239.21L4118.04 3243.72 M 4122.04 3239.21L4122.04 3243.72 M 4122.04 3241.36L4121.61 3240.93 L4121.18 3240.72 L4120.54 3240.72 L4120.11 3240.93 L4119.68 3241.36 L4119.46 3242 L4119.46 3242.43 L4119.68 3243.08 L4120.11 3243.51 L4120.54 3243.72 L4121.18 3243.72 L4121.61 3243.51 L4122.04 3243.08 M 4128.48 3239.21L4126.76 3243.72 M 4128.48 3239.21L4130.2 3243.72 M 4127.41 3242.22L4129.55 3242.22 M 4131.62 3240.72L4131.62 3243.72 M 4131.62 3242L4131.83 3241.36 L4132.26 3240.93 L4132.69 3240.72 L4133.33 3240.72 M 4137.33 3239.21L4137.33 3243.72 M 4137.33 3241.36L4136.9 3240.93 L4136.47 3240.72 L4135.83 3240.72 L4135.4 3240.93 L4134.97 3241.36 L4134.75 3242 L4134.75 3242.43 L4134.97 3243.08 L4135.4 3243.51 L4135.83 3243.72 L4136.47 3243.72 L4136.9 3243.51 L4137.33 3243.08 M 4138.75 3240.72L4138.75 3242.86 L4138.96 3243.51 L4139.39 3243.72 L4140.03 3243.72 L4140.46 3243.51 L4141.11 3242.86 M 4141.11 3240.72L4141.11 3243.72 M 4142.53 3245.23L4146.39 3245.23 M 4147.81 3239.21L4147.81 3243.72 M 4147.81 3239.21L4149.74 3239.21 L4150.39 3239.43 L4150.6 3239.64 L4150.81 3240.07 L4150.81 3240.5 L4150.6 3240.93 L4150.39 3241.15 L4149.74 3241.36 L4147.81 3241.36 M 4149.31 3241.36L4150.81 3243.72 M 4154.81 3240.72L4154.81 3243.72 M 4154.81 3241.36L4154.38 3240.93 L4153.95 3240.72 L4153.31 3240.72 L4152.88 3240.93 L4152.45 3241.36 L4152.23 3242 L4152.23 3242.43 L4152.45 3243.08 L4152.88 3243.51 L4153.31 3243.72 L4153.95 3243.72 L4154.38 3243.51 L4154.81 3243.08 M 4156.23 3240.72L4156.23 3245.23 M 4156.23 3241.36L4156.66 3240.93 L4157.09 3240.72 L4157.73 3240.72 L4158.16 3240.93 L4158.59 3241.36 L4158.8 3242 L4158.8 3242.43 L4158.59 3243.08 L4158.16 3243.51 L4157.73 3243.72 L4157.09 3243.72 L4156.66 3243.51 L4156.23 3243.08 M 4160.22 3239.21L4160.22 3243.72 M 4160.22 3241.36L4160.65 3240.93 L4161.08 3240.72 L4161.72 3240.72 L4162.15 3240.93 L4162.58 3241.36 L4162.8 3242 L4162.8 3242.43 L4162.58 3243.08 L4162.15 3243.51 L4161.72 3243.72 L4161.08 3243.72 L4160.65 3243.51 L4160.22 3243.08 M 4167.52 3240.72L4168.81 3243.72 M 4170.1 3240.72L4168.81 3243.72 M 4172.8 3239.21L4172.16 3239.43 L4171.73 3240.07 L4171.52 3241.15 L4171.52 3241.79 L4171.73 3242.86 L4172.16 3243.51 L4172.8 3243.72 L4173.23 3243.72 L4173.88 3243.51 L4174.31 3242.86 L4174.52 3241.79 L4174.52 3241.15 L4174.31 3240.07 L4173.88 3239.43 L4173.23 3239.21 L4172.8 3239.21 M 4176.15 3242.65L4175.94 3242.86 L4176.15 3243.08 L4176.37 3242.86 L4176.15 3242.65 M 4179.08 3239.21L4178.43 3239.43 L4178 3240.07 L4177.79 3241.15 L4177.79 3241.79 L4178 3242.86 L4178.43 3243.51 L4179.08 3243.72 L4179.5 3243.72 L4180.15 3243.51 L4180.58 3242.86 L4180.79 3241.79 L4180.79 3241.15 L4180.58 3240.07 L4180.15 3239.43 L4179.5 3239.21 L4179.08 3239.21 " fill="none"  stroke-width="0.8"  /></g></g></svg>